<?xml version="1.0" encoding="UTF-8"?>
<svg width="439px" height="99px" viewBox="0 0 439 99" version="1.1" xmlns="http://www.w3.org/2000/svg" xmlns:xlink="http://www.w3.org/1999/xlink">
    <!-- Generator: Sketch 52.2 (67145) - http://www.bohemiancoding.com/sketch -->
    <title>brand-4</title>
    <desc>Created with Sketch.</desc>
    <g id="Page-1" stroke="none" stroke-width="1" fill="none" fill-rule="evenodd">
        <g id="Test-Copy" transform="translate(-411.000000, -519.000000)">
            <g id="brand-4" transform="translate(411.000000, 519.000000)">
                <rect id="Rectangle" stroke="#111111" stroke-width="2" x="1" y="1" width="437" height="97"></rect>
                <path d="M61.5580533,48.3974609 C64.8132779,48.9834014 67.2546597,50.0209886 68.882272,51.5102539 C70.5098843,52.9995192 71.3236783,54.9404177 71.3236783,57.3330078 C71.3236783,60.0185681 70.282022,62.1344324 68.1986783,63.6806641 C66.1153345,65.2268958 62.6567102,66 57.8227017,66 L40.4643033,66 L40.4643033,63.2900391 C42.2058484,63.2900391 43.3614358,63.0174181 43.9311001,62.472168 C44.5007644,61.9269178 44.7855923,60.8486409 44.7855923,59.2373047 L44.7855923,39.828125 C44.7855923,38.2656172 44.5170403,37.1995471 43.9799283,36.6298828 C43.4428162,36.0602185 42.2709529,35.7753906 40.4643033,35.7753906 L40.4643033,33.0654297 L53.1840298,32.6992188 L54.9906704,32.6992188 C60.7198658,32.6992188 64.6260767,33.4112885 66.7094204,34.8354492 C68.7927642,36.25961 69.8344204,38.2005085 69.8344204,40.6582031 C69.8344204,42.5136812 69.1467646,44.0843035 67.7714322,45.3701172 C66.3960998,46.6559309 64.3249942,47.6650354 61.5580533,48.3974609 Z M53.4525845,46.9814453 L55.1371548,46.9814453 C56.9275284,46.9814453 58.2621504,46.5623414 59.1410611,45.7241211 C60.0199717,44.8859008 60.4594204,43.4332786 60.4594204,41.3662109 C60.4594204,39.8199792 60.1827305,38.5992883 59.6293423,37.7041016 C59.0759541,36.8089148 58.3476086,36.2311211 57.4442837,35.9707031 C56.5409589,35.7102852 55.2104058,35.5800781 53.4525845,35.5800781 L53.4525845,46.9814453 Z M53.4525845,49.9599609 L53.4525845,59.359375 C53.4525845,60.2708379 53.5461708,60.9625627 53.7333462,61.4345703 C53.9205216,61.9065779 54.2867289,62.3012679 54.831979,62.6186523 C55.3772292,62.9360367 56.1462644,63.0947266 57.1391079,63.0947266 C58.6853396,63.0947266 59.844996,62.5494846 60.6181118,61.4589844 C61.3912277,60.3684841 61.7777798,58.7327583 61.7777798,56.5517578 C61.7777798,54.8102126 61.5255037,53.4471078 61.0209439,52.4624023 C60.5163841,51.4776969 59.8246592,50.8144548 58.9457486,50.4726562 C58.0668379,50.1308577 56.7647676,49.9599609 55.0394986,49.9599609 L53.4525845,49.9599609 Z M89.2742206,51.4003906 L89.2742206,59.2373047 C89.2742206,60.7509841 89.5346346,61.8048473 90.0554706,62.3989258 C90.5763065,62.9930043 91.6423766,63.2900391 93.2537128,63.2900391 L93.8396503,63.2900391 L93.8396503,66 L75.9929706,66 L75.9929706,63.2900391 L76.6521503,63.2900391 C78.3123148,63.2900391 79.3905918,62.9848663 79.8870136,62.3745117 C80.3834353,61.7641571 80.6316425,60.7184319 80.6316425,59.2373047 L80.6316425,39.6572266 C80.6316425,38.1435471 80.3712284,37.089684 79.8503925,36.4956055 C79.3295565,35.901527 78.2634865,35.6044922 76.6521503,35.6044922 L75.9929706,35.6044922 L75.9929706,32.8945312 L89.2742206,32.8701172 L92.2527362,32.8457031 C95.1987145,32.8457031 97.3511995,32.9433584 98.7102557,33.1386719 C100.069312,33.3339854 101.408003,33.8019169 102.726369,34.5424805 C104.044735,35.2830441 105.082322,36.2962175 105.839162,37.5820312 C106.596002,38.867845 106.974416,40.2512947 106.974416,41.7324219 C106.974416,45.6712437 104.74462,48.3649016 100.284963,49.8134766 C101.47312,50.5621782 103.320432,52.9059048 105.826955,56.8447266 C107.78009,59.8883616 109.171677,61.7234669 110.00176,62.3500977 C110.831842,62.9767284 111.743291,63.2900391 112.736135,63.2900391 L112.736135,66 L102.384572,66 C101.440557,64.8769475 99.6909,62.0286687 97.1355487,57.4550781 C95.849735,55.1438687 94.9464237,53.6546257 94.4255878,52.9873047 C93.9047518,52.3199836 93.3717168,51.8927418 92.8264667,51.7055664 C92.2812166,51.518391 91.0971464,51.4166667 89.2742206,51.4003906 Z M89.2742206,48.421875 C92.0248854,48.4544272 93.8803356,48.2875995 94.8406268,47.9213867 C95.8009181,47.555174 96.5577465,46.8960009 97.1111346,45.9438477 C97.6645228,44.9916945 97.9412128,43.7018311 97.9412128,42.0742188 C97.9412128,39.7467332 97.3919019,38.1354211 96.2932636,37.2402344 C95.1946252,36.3450476 93.3025543,35.8974609 90.616994,35.8974609 C90.2751954,35.8974609 89.8276088,35.9055989 89.2742206,35.921875 L89.2742206,48.421875 Z M121.726716,57.0644531 L121.09195,58.7001953 C120.636219,59.8558 120.408357,60.669594 120.408357,61.1416016 C120.408357,61.9391316 120.676909,62.4965804 121.214021,62.8139648 C121.751133,63.1313492 122.63003,63.2900391 123.850739,63.2900391 L123.850739,66 L112.913239,66 L112.913239,63.2900391 C114.996583,63.2900391 116.74624,61.5159683 118.162263,57.9677734 L128.342927,32.3085938 L131.199372,32.3085938 L141.575349,57.9433594 C142.600745,60.4824346 143.52847,62.0082982 144.358552,62.5209961 C145.188634,63.033694 145.986152,63.2900391 146.75113,63.2900391 L146.75113,66 L130.320466,66 L130.320466,63.2900391 C131.801593,63.2900391 132.72118,63.1476251 133.079255,62.862793 C133.43733,62.5779608 133.616364,62.2158225 133.616364,61.7763672 C133.616364,61.3857402 133.469882,60.87305 133.176911,60.2382812 L132.859529,59.4814453 L131.90738,57.0644531 L121.726716,57.0644531 Z M122.776521,54.2568359 L130.808747,54.2568359 L126.682771,44.3691406 L122.776521,54.2568359 Z M156.132336,42.3183594 L156.132336,57.5283203 C156.132336,59.9697388 156.575854,61.5403611 157.462903,62.2402344 C158.349952,62.9401077 159.485194,63.2900391 160.868665,63.2900391 L160.868665,66 L148.441907,66 L148.441907,63.2900391 C149.499855,63.2900391 150.419442,63.033694 151.200696,62.5209961 C151.98195,62.0082982 152.478364,61.4142286 152.689954,60.7387695 C152.901543,60.0633104 153.007336,59.0013093 153.007336,57.5527344 L153.007336,40.6582031 C153.007336,37.2890457 151.428576,35.6044922 148.271008,35.6044922 L148.271008,32.8945312 L159.452649,32.8945312 L177.592297,53.1582031 L177.592297,41.0244141 C177.592297,37.4111147 176.070503,35.6044922 173.026868,35.6044922 L173.026868,32.8945312 L184.916516,32.8945312 L184.916516,35.6044922 C184.086434,35.6044922 183.309261,35.8323545 182.584973,36.2880859 C181.860686,36.7438174 181.36834,37.3256801 181.107922,38.0336914 C180.847504,38.7417028 180.717297,39.7711521 180.717297,41.1220703 L180.717297,66.5371094 L177.592297,66.5371094 L156.132336,42.3183594 Z M189.073113,66 L189.073113,63.2900391 C190.814658,63.2900391 191.970246,63.0174181 192.53991,62.472168 C193.109574,61.9269178 193.394402,60.8486409 193.394402,59.2373047 L193.394402,39.6328125 C193.394402,38.0703047 193.12585,37.0042346 192.588738,36.4345703 C192.051626,35.864906 190.879763,35.5800781 189.073113,35.5800781 L189.073113,32.8945312 L193.052605,32.7480469 C197.056532,32.5852856 200.197776,32.5039062 202.476434,32.5039062 C206.285046,32.5039062 209.381532,32.7236306 211.765984,33.1630859 C214.150436,33.6025413 216.404646,34.5668871 218.52868,36.0561523 C220.652714,37.5454176 222.288439,39.4741093 223.435906,41.8422852 C224.583373,44.2104611 225.157098,46.8186707 225.157098,49.6669922 C225.157098,52.5804182 224.550821,55.1845588 223.33825,57.4794922 C222.125679,59.7744255 220.494022,61.6054619 218.44323,62.9726562 C216.392439,64.3398506 214.268437,65.1861963 212.07116,65.5117188 C209.873883,65.8372412 206.179259,66 200.987176,66 L189.073113,66 Z M202.061394,35.4824219 L202.061394,58.2851562 C202.061394,59.7500073 202.130567,60.734698 202.268914,61.2392578 C202.407261,61.7438176 202.773468,62.1751284 203.367547,62.5332031 C203.961625,62.8912778 204.877143,63.0703125 206.114129,63.0703125 C209.17404,63.0703125 211.46487,61.9472769 212.986687,59.7011719 C214.508505,57.4550669 215.269402,54.0940979 215.269402,49.6181641 C215.269402,46.0048647 214.707884,43.1281031 213.584832,40.987793 C212.461779,38.8474828 211.005088,37.3948606 209.214715,36.6298828 C207.424341,35.864905 205.039925,35.4824219 202.061394,35.4824219 Z M252.073807,42.3183594 L252.073807,57.5283203 C252.073807,59.9697388 252.517325,61.5403611 253.404374,62.2402344 C254.291422,62.9401077 255.426665,63.2900391 256.810135,63.2900391 L256.810135,66 L244.383378,66 L244.383378,63.2900391 C245.441326,63.2900391 246.360913,63.033694 247.142167,62.5209961 C247.923421,62.0082982 248.419835,61.4142286 248.631424,60.7387695 C248.843014,60.0633104 248.948807,59.0013093 248.948807,57.5527344 L248.948807,40.6582031 C248.948807,37.2890457 247.370047,35.6044922 244.212479,35.6044922 L244.212479,32.8945312 L255.39412,32.8945312 L273.533768,53.1582031 L273.533768,41.0244141 C273.533768,37.4111147 272.011973,35.6044922 268.968338,35.6044922 L268.968338,32.8945312 L280.857987,32.8945312 L280.857987,35.6044922 C280.027905,35.6044922 279.250731,35.8323545 278.526444,36.2880859 C277.802156,36.7438174 277.309811,37.3256801 277.049393,38.0336914 C276.788975,38.7417028 276.658768,39.7711521 276.658768,41.1220703 L276.658768,66.5371094 L273.533768,66.5371094 L252.073807,42.3183594 Z M289.946225,57.0644531 L289.311459,58.7001953 C288.855727,59.8558 288.627865,60.669594 288.627865,61.1416016 C288.627865,61.9391316 288.896417,62.4965804 289.433529,62.8139648 C289.970641,63.1313492 290.849539,63.2900391 292.070248,63.2900391 L292.070248,66 L281.132748,66 L281.132748,63.2900391 C283.216092,63.2900391 284.965749,61.5159683 286.381771,57.9677734 L296.562436,32.3085938 L299.418881,32.3085938 L309.794857,57.9433594 C310.820253,60.4824346 311.747978,62.0082982 312.578061,62.5209961 C313.408143,63.033694 314.205661,63.2900391 314.970639,63.2900391 L314.970639,66 L298.539975,66 L298.539975,63.2900391 C300.021102,63.2900391 300.940689,63.1476251 301.298764,62.862793 C301.656838,62.5779608 301.835873,62.2158225 301.835873,61.7763672 C301.835873,61.3857402 301.68939,60.87305 301.39642,60.2382812 L301.079037,59.4814453 L300.126889,57.0644531 L289.946225,57.0644531 Z M290.996029,54.2568359 L299.028256,54.2568359 L294.902279,44.3691406 L290.996029,54.2568359 Z M336.046181,66 L323.741493,40.1943359 L323.741493,57.3085938 C323.741493,58.8385493 323.847287,59.9656539 324.058876,60.6899414 C324.270466,61.4142289 324.762811,62.0286433 325.535927,62.5332031 C326.309043,63.0377629 327.248975,63.2900391 328.355751,63.2900391 L328.355751,66 L316.441689,66 L316.441689,63.2900391 C317.483361,63.2900391 318.386672,63.0174181 319.15165,62.472168 C319.916627,61.9269178 320.384559,61.3002965 320.555458,60.5922852 C320.726358,59.8842738 320.811806,58.7490313 320.811806,57.1865234 L320.811806,39.7792969 C320.811806,38.1191323 320.522909,37.0083036 319.945107,36.4467773 C319.367304,35.8852511 318.19951,35.6044922 316.441689,35.6044922 L316.441689,32.8945312 L329.698525,32.8945312 L339.903603,54.6474609 L350.206337,32.8945312 L363.512001,32.8945312 L363.512001,35.6044922 L362.852822,35.6044922 C361.192657,35.6044922 360.11438,35.9096649 359.617958,36.5200195 C359.121537,37.1303741 358.873329,38.1760994 358.873329,39.6572266 L358.873329,59.2373047 C358.873329,60.7509841 359.129674,61.8048473 359.642372,62.3989258 C360.15507,62.9930043 361.225209,63.2900391 362.852822,63.2900391 L363.609658,63.2900391 L363.609658,66 L345.592079,66 L345.592079,63.2900391 L346.251259,63.2900391 C347.895148,63.2900391 348.965287,62.9848663 349.461708,62.3745117 C349.95813,61.7641571 350.206337,60.7184319 350.206337,59.2373047 L350.206337,39.7792969 L337.950478,66 L336.046181,66 Z M380.608051,50.1796875 L380.608051,58.3583984 C380.608051,59.9209063 380.697569,60.9422177 380.876606,61.4223633 C381.055643,61.9025089 381.535782,62.3012679 382.317036,62.6186523 C383.09829,62.9360367 384.286429,63.0947266 385.881489,63.0947266 C388.046213,63.0947266 389.63718,62.8261746 390.654438,62.2890625 C391.671696,61.7519504 392.583145,60.8079495 393.388813,59.4570312 C394.194481,58.106113 394.776344,56.6656978 395.134419,55.1357422 L397.868794,55.1357422 L397.649067,66 L367.37563,66 L367.37563,63.2900391 L367.985981,63.2900391 C369.62987,63.2900391 370.700009,62.9848663 371.19643,62.3745117 C371.692852,61.7641571 371.941059,60.7184319 371.941059,59.2373047 L371.941059,39.6083984 C371.941059,38.094719 371.684714,37.0408558 371.172016,36.4467773 C370.659318,35.8526989 369.597317,35.5556641 367.985981,35.5556641 L367.37563,35.5556641 L367.37563,32.8945312 L395.573872,32.8945312 L396.062153,41.4638672 L393.327778,41.4638672 C392.839494,39.9664639 392.294252,38.7742557 391.692036,37.887207 C391.089819,37.0001583 390.483543,36.4305026 389.873188,36.1782227 C389.262834,35.9259427 388.233384,35.7998047 386.784809,35.7998047 L380.608051,35.7998047 L380.608051,47.2255859 L383.684223,47.2255859 C385.149074,47.2255859 386.121558,46.948896 386.601704,46.3955078 C387.081849,45.8421196 387.35447,44.7516357 387.419575,43.1240234 L390.178364,43.1240234 L390.178364,54.3544922 L387.419575,54.3544922 C387.435851,54.1429026 387.443989,53.9882817 387.443989,53.890625 C387.443989,52.9466099 387.244609,52.0921262 386.845844,51.3271484 C386.447079,50.5621707 385.425768,50.1796875 383.78188,50.1796875 L380.608051,50.1796875 Z" id="BRAND-NAME" fill="#111111"></path>
            </g>
        </g>
    </g>
</svg>