<?xml version="1.0" encoding="UTF-8"?>
<svg width="318px" height="77px" viewBox="0 0 318 77" version="1.1" xmlns="http://www.w3.org/2000/svg" xmlns:xlink="http://www.w3.org/1999/xlink">
    <!-- Generator: Sketch 52.2 (67145) - http://www.bohemiancoding.com/sketch -->
    <title>brand-5</title>
    <desc>Created with Sketch.</desc>
    <g id="Page-1" stroke="none" stroke-width="1" fill="none" fill-rule="evenodd">
        <g id="Test-Copy" transform="translate(-98.000000, -373.000000)">
            <g id="brand-5" transform="translate(98.000000, 373.000000)">
                <rect id="Rectangle" fill="#111111" x="0" y="0" width="318" height="77"></rect>
                <path d="M55.5777846,45.35 C55.5777846,47.1833425 55.2861208,48.7166605 54.7027846,49.95 C54.1194483,51.1833395 53.3777891,52.1749962 52.4777846,52.925 C51.5777801,53.6750038 50.5861233,54.2083317 49.5027846,54.525 C48.4194458,54.8416682 47.3777896,55 46.3777846,55 L37.3277846,55 L37.3277846,19.6 L45.3277846,19.6 C46.3277896,19.6 47.3611126,19.733332 48.4277846,20 C49.4944566,20.266668 50.4694468,20.7249968 51.3527846,21.375 C52.2361223,22.0250032 52.9611151,22.9083277 53.5277846,24.025 C54.0944541,25.1416722 54.3777846,26.5499915 54.3777846,28.25 C54.3777846,29.450006 54.2361193,30.4916622 53.9527846,31.375 C53.6694498,32.2583378 53.2944536,33.0249967 52.8277846,33.675 C52.3611156,34.3250032 51.8277876,34.8583312 51.2277846,35.275 C50.6277816,35.6916687 50.0111211,36.0166655 49.3777846,36.25 L49.3777846,36.35 C50.0111211,36.483334 50.6944476,36.749998 51.4277846,37.15 C52.1611216,37.550002 52.8361148,38.1083298 53.4527846,38.825 C54.0694543,39.5416702 54.5777826,40.4416612 54.9777846,41.525 C55.3777866,42.6083388 55.5777846,43.883326 55.5777846,45.35 Z M51.1277846,28.75 C51.1277846,27.5833275 50.9527863,26.600004 50.6027846,25.8 C50.2527828,24.999996 49.7861208,24.3583357 49.2027846,23.875 C48.6194483,23.3916642 47.9611216,23.050001 47.2277846,22.85 C46.4944476,22.649999 45.7444551,22.55 44.9777846,22.55 L40.6277846,22.55 L40.6277846,35.1 L45.0777846,35.1 C45.8111216,35.1 46.5361143,34.9833345 47.2527846,34.75 C47.9694548,34.5166655 48.6111151,34.1416692 49.1777846,33.625 C49.7444541,33.1083307 50.2111161,32.450004 50.5777846,31.65 C50.9444531,30.849996 51.1277846,29.883339 51.1277846,28.75 Z M52.1277846,45.15 C52.1277846,43.81666 51.9277866,42.6916712 51.5277846,41.775 C51.1277826,40.8583287 50.6111211,40.1166695 49.9777846,39.55 C49.3444481,38.9833305 48.6361218,38.566668 47.8527846,38.3 C47.0694473,38.033332 46.3111216,37.9 45.5777846,37.9 L40.6277846,37.9 L40.6277846,52.05 L45.5777846,52.05 C46.4777891,52.05 47.3277806,51.916668 48.1277846,51.65 C48.9277886,51.383332 49.6277816,50.9666695 50.2277846,50.4 C50.8277876,49.8333305 51.2944496,49.116671 51.6277846,48.25 C51.9611196,47.383329 52.1277846,46.350006 52.1277846,45.15 Z M77.4500061,55 L71.0500061,38.6 L66.5000061,38.6 L66.5000061,55 L63.0500061,55 L63.0500061,19.6 L71.5500061,19.6 C72.7166786,19.6 73.8416674,19.7583317 74.9250061,20.075 C76.0083449,20.3916682 76.9750019,20.916663 77.8250061,21.65 C78.6750104,22.383337 79.3583369,23.349994 79.8750061,24.55 C80.3916754,25.750006 80.6500061,27.216658 80.6500061,28.95 C80.6500061,30.4500075 80.4583414,31.7416613 80.0750061,32.825 C79.6916709,33.9083387 79.1916759,34.816663 78.5750061,35.55 C77.9583364,36.283337 77.2750099,36.849998 76.5250061,37.25 C75.7750024,37.650002 75.0333431,37.8999995 74.3000061,38 L81.2000061,55 L77.4500061,55 Z M77.2500061,29.1 C77.2500061,27.833327 77.0750079,26.7750043 76.7250061,25.925 C76.3750044,25.0749957 75.9083424,24.4000025 75.3250061,23.9 C74.7416699,23.3999975 74.0750099,23.050001 73.3250061,22.85 C72.5750024,22.649999 71.8000101,22.55 71.0000061,22.55 L66.5000061,22.55 L66.5000061,35.85 L71.1500061,35.85 C73.0500156,35.85 74.5416674,35.2583392 75.6250061,34.075 C76.7083449,32.8916607 77.2500061,31.233344 77.2500061,29.1 Z M103.422228,55 L101.272228,46.15 L90.3722277,46.15 L88.1222277,55 L84.5722277,55 L93.5722277,19.6 L98.3222277,19.6 L107.072228,55 L103.422228,55 Z M95.9722277,22.75 L95.7722277,22.75 L90.8722277,43.35 L100.772228,43.35 L95.9722277,22.75 Z M128.644449,55 L116.294449,25.55 L116.144449,25.55 L116.144449,55 L112.894449,55 L112.894449,19.6 L117.244449,19.6 L129.494449,49.05 L129.644449,49.05 L129.644449,19.6 L132.844449,19.6 L132.844449,55 L128.644449,55 Z M162.816671,37.35 C162.816671,40.2500145 162.516674,42.799989 161.916671,45 C161.316668,47.200011 160.45001,49.0416592 159.316671,50.525 C158.183332,52.0083408 156.825012,53.1249962 155.241671,53.875 C153.65833,54.6250038 151.900014,55 149.966671,55 L142.366671,55 L142.366671,19.6 L150.016671,19.6 C151.950014,19.6 153.70833,19.9749963 155.291671,20.725 C156.875012,21.4750037 158.224999,22.5999925 159.341671,24.1 C160.458343,25.6000075 161.316668,27.4583222 161.916671,29.675 C162.516674,31.8916777 162.816671,34.4499855 162.816671,37.35 Z M159.366671,37.35 C159.366671,34.8499875 159.125007,32.6750093 158.641671,30.825 C158.158335,28.9749908 157.491675,27.450006 156.641671,26.25 C155.791667,25.049994 154.791677,24.150003 153.641671,23.55 C152.491665,22.949997 151.250011,22.65 149.916671,22.65 L145.816671,22.65 L145.816671,51.95 L149.916671,51.95 C151.250011,51.95 152.491665,51.650003 153.641671,51.05 C154.791677,50.449997 155.791667,49.550006 156.641671,48.35 C157.491675,47.149994 158.158335,45.6333425 158.641671,43.8 C159.125007,41.9666575 159.366671,39.816679 159.366671,37.35 Z M197.261114,55 L184.911114,25.55 L184.761114,25.55 L184.761114,55 L181.511114,55 L181.511114,19.6 L185.861114,19.6 L198.111114,49.05 L198.261114,49.05 L198.261114,19.6 L201.461114,19.6 L201.461114,55 L197.261114,55 Z M226.133335,55 L223.983335,46.15 L213.083335,46.15 L210.833335,55 L207.283335,55 L216.283335,19.6 L221.033335,19.6 L229.783335,55 L226.133335,55 Z M218.683335,22.75 L218.483335,22.75 L213.583335,43.35 L223.483335,43.35 L218.683335,22.75 Z M259.755557,55 L259.755557,24.25 L259.605557,24.25 L250.905557,55 L247.655557,55 L239.005557,24.25 L238.855557,24.25 L238.855557,55 L235.605557,55 L235.605557,19.6 L240.805557,19.6 L249.255557,49.5 L249.455557,49.5 L257.805557,19.6 L263.205557,19.6 L263.205557,55 L259.755557,55 Z M272.727778,55 L272.727778,19.6 L286.977778,19.6 L286.977778,22.7 L276.127778,22.7 L276.127778,35.15 L286.277778,35.15 L286.277778,38.1 L276.127778,38.1 L276.127778,51.85 L287.477778,51.85 L287.477778,55 L272.727778,55 Z" id="BRAND-NAME" fill="#FFFFFF"></path>
            </g>
        </g>
    </g>
</svg>