<?xml version="1.0" encoding="UTF-8"?>
<svg width="274px" height="44px" viewBox="0 0 274 44" version="1.1" xmlns="http://www.w3.org/2000/svg" xmlns:xlink="http://www.w3.org/1999/xlink">
    <!-- Generator: Sketch 52.2 (67145) - http://www.bohemiancoding.com/sketch -->
    <title>brand-2</title>
    <desc>Created with Sketch.</desc>
    <g id="Page-1" stroke="none" stroke-width="1" fill="none" fill-rule="evenodd">
        <g id="Test-Copy" transform="translate(-553.000000, -388.000000)" fill="#111111">
            <g id="brand-2" transform="translate(553.000000, 388.000000)">
                <path d="M59.5777798,41 L59.5777798,5.4 L67.0277798,5.4 C68.6611213,5.4 70.0527741,5.6499975 71.2027798,6.15 C72.3527856,6.6500025 73.2944428,7.3166625 74.0277798,8.15 C74.7611168,8.9833375 75.2861116,9.94166125 75.6027798,11.025 C75.9194481,12.1083388 76.0777798,13.2333275 76.0777798,14.4 L76.0777798,15.7 C76.0777798,16.6666715 76.0027806,17.48333 75.8527798,18.15 C75.7027791,18.81667 75.4777813,19.3999975 75.1777798,19.9 C74.6111103,20.833338 73.7444523,21.63333 72.5777798,22.3 C73.7777858,22.8666695 74.6611103,23.6999945 75.2277798,24.8 C75.7944493,25.9000055 76.0777798,27.3999905 76.0777798,29.3 L76.0777798,31.3 C76.0777798,34.433349 75.3194541,36.833325 73.8027798,38.5 C72.2861056,40.166675 69.8611298,41 66.5277798,41 L59.5777798,41 Z M64.6777798,24.5 L64.6777798,35.9 L66.8777798,35.9 C67.9111183,35.9 68.7194436,35.7500015 69.3027798,35.45 C69.8861161,35.1499985 70.3277783,34.733336 70.6277798,34.2 C70.9277813,33.666664 71.1111128,33.033337 71.1777798,32.3 C71.2444468,31.566663 71.2777798,30.766671 71.2777798,29.9 C71.2777798,28.9999955 71.2277803,28.21667 71.1277798,27.55 C71.0277793,26.88333 70.8277813,26.316669 70.5277798,25.85 C70.1944448,25.383331 69.7444493,25.0416678 69.1777798,24.825 C68.6111103,24.6083323 67.8611178,24.5 66.9277798,24.5 L64.6777798,24.5 Z M64.6777798,10.2 L64.6777798,20 L66.9777798,20 C68.6777883,20 69.8194436,19.5750042 70.4027798,18.725 C70.9861161,17.8749957 71.2777798,16.6333415 71.2777798,15 C71.2777798,13.399992 70.9527831,12.200004 70.3027798,11.4 C69.6527766,10.599996 68.4777883,10.2 66.7777798,10.2 L64.6777798,10.2 Z M87.4000018,10.2 L87.4000018,21.3 L90.3000018,21.3 C91.2000063,21.3 91.9166658,21.1750012 92.4500018,20.925 C92.9833378,20.6749988 93.4000003,20.316669 93.7000018,19.85 C93.9666698,19.383331 94.1500013,18.8083368 94.2500018,18.125 C94.3500023,17.4416632 94.4000018,16.6500045 94.4000018,15.75 C94.4000018,14.8499955 94.3500023,14.0583368 94.2500018,13.375 C94.1500013,12.6916632 93.9500033,12.1000025 93.6500018,11.6 C93.0166653,10.666662 91.8166773,10.2 90.0500018,10.2 L87.4000018,10.2 Z M82.3000018,41 L82.3000018,5.4 L90.5000018,5.4 C96.5000318,5.4 99.5000018,8.8832985 99.5000018,15.85 C99.5000018,17.9500105 99.1750051,19.733326 98.5250018,21.2 C97.8749986,22.666674 96.7333433,23.8499955 95.1000018,24.75 L100.600002,41 L95.2000018,41 L90.4500018,25.8 L87.4000018,25.8 L87.4000018,41 L82.3000018,41 Z M115.322224,28.55 L112.822224,15.65 L112.722224,15.65 L110.222224,28.55 L115.322224,28.55 Z M102.722224,41 L110.672224,5.4 L114.922224,5.4 L122.872224,41 L117.772224,41 L116.272224,33.35 L109.322224,33.35 L107.822224,41 L102.722224,41 Z M126.594446,41 L126.594446,5.4 L131.494446,5.4 L139.194446,26.85 L139.294446,26.85 L139.294446,5.4 L144.394446,5.4 L144.394446,41 L139.594446,41 L131.794446,19.6 L131.694446,19.6 L131.694446,41 L126.594446,41 Z M150.416668,41 L150.416668,5.4 L157.966668,5.4 C160.900016,5.4 163.124994,6.199992 164.641668,7.8 C166.158342,9.400008 166.916668,11.666652 166.916668,14.6 L166.916668,31.25 C166.916668,34.58335 166.108343,37.0416587 164.491668,38.625 C162.874993,40.2083413 160.550016,41 157.516668,41 L150.416668,41 Z M155.516668,10.2 L155.516668,36.2 L157.866668,36.2 C159.300008,36.2 160.316665,35.8416702 160.916668,35.125 C161.516671,34.4083298 161.816668,33.283341 161.816668,31.75 L161.816668,14.6 C161.816668,13.199993 161.533337,12.1166705 160.966668,11.35 C160.399998,10.5833295 159.366675,10.2 157.866668,10.2 L155.516668,10.2 Z M183.661112,41 L183.661112,5.4 L188.561112,5.4 L196.261112,26.85 L196.361112,26.85 L196.361112,5.4 L201.461112,5.4 L201.461112,41 L196.661112,41 L188.861112,19.6 L188.761112,19.6 L188.761112,41 L183.661112,41 Z M217.783334,28.55 L215.283334,15.65 L215.183334,15.65 L212.683334,28.55 L217.783334,28.55 Z M205.183334,41 L213.133334,5.4 L217.383334,5.4 L225.333334,41 L220.233334,41 L218.733334,33.35 L211.783334,33.35 L210.283334,41 L205.183334,41 Z M229.255556,41 L229.255556,5.4 L234.155556,5.4 L240.705556,24.25 L240.805556,24.25 L247.305556,5.4 L252.255556,5.4 L252.255556,41 L247.155556,41 L247.155556,19.35 L247.055556,19.35 L242.005556,34.65 L239.455556,34.65 L234.455556,19.35 L234.355556,19.35 L234.355556,41 L229.255556,41 Z M258.477778,41 L258.477778,5.4 L273.677778,5.4 L273.677778,10.2 L263.577778,10.2 L263.577778,20.65 L272.377778,20.65 L272.377778,25.45 L263.577778,25.45 L263.577778,35.9 L273.677778,35.9 L273.677778,41 L258.477778,41 Z" id="BRAND-NAME"></path>
                <circle id="Oval" cx="22" cy="22" r="22"></circle>
            </g>
        </g>
    </g>
</svg>