<?xml version="1.0" encoding="UTF-8"?>
<svg width="423px" height="44px" viewBox="0 0 423 44" version="1.1" xmlns="http://www.w3.org/2000/svg" xmlns:xlink="http://www.w3.org/1999/xlink">
    <!-- Generator: Sketch 52.2 (67145) - http://www.bohemiancoding.com/sketch -->
    <title>brand-3</title>
    <desc>Created with Sketch.</desc>
    <g id="Page-1" stroke="none" stroke-width="1" fill="none" fill-rule="evenodd">
        <g id="Test-Copy" transform="translate(-960.000000, -547.000000)" fill="#111111">
            <g id="brand-3" transform="translate(960.000000, 536.000000)">
                <path d="M42.9833984,52 L42.9833984,14.3046875 L48.6474609,14.3046875 C51.17026,14.3046875 53.1803311,14.499998 54.6777344,14.890625 C56.1914138,15.281252 57.4690703,15.940425 58.5107422,16.8681641 C59.5686902,17.8284553 60.4068979,19.0247324 61.0253906,20.4570312 C61.6601594,21.9056062 61.9775391,23.3704353 61.9775391,24.8515625 C61.9775391,27.5533989 60.9440208,29.8401599 58.8769531,31.7119141 C60.8789163,32.3955112 62.4576765,33.5917883 63.6132812,35.3007812 C64.7851621,36.993498 65.3710938,38.9628794 65.3710938,41.2089844 C65.3710938,44.1549626 64.3294375,46.6451721 62.2460938,48.6796875 C60.9928323,49.932949 59.5849688,50.8037085 58.0224609,51.2919922 C56.313468,51.7639998 54.1731899,52 51.6015625,52 L42.9833984,52 Z M48.671875,30.4912109 L50.4541016,30.4912109 C52.5699976,30.4912109 54.120275,30.0232794 55.1049805,29.0874023 C56.0896859,28.1515253 56.5820312,26.7721445 56.5820312,24.9492188 C56.5820312,23.1751213 56.077479,21.8282924 55.0683594,20.9086914 C54.0592397,19.9890905 52.5944106,19.5292969 50.6738281,19.5292969 L48.671875,19.5292969 L48.671875,30.4912109 Z M48.671875,46.6533203 L52.1875,46.6533203 C54.7591274,46.6533203 56.6471294,46.1487681 57.8515625,45.1396484 C59.1211001,44.0491482 59.7558594,42.6656985 59.7558594,40.9892578 C59.7558594,39.3616455 59.1455139,37.9944717 57.9248047,36.8876953 C56.7366477,35.7971951 54.6126455,35.2519531 51.5527344,35.2519531 L48.671875,35.2519531 L48.671875,46.6533203 Z M85.3173828,35.9355469 L96.9873047,52 L90.0292969,52 L79.2626953,36.5703125 L78.2373047,36.5703125 L78.2373047,52 L72.5488281,52 L72.5488281,14.3046875 L79.2138672,14.3046875 C84.1943608,14.3046875 87.7913301,15.2405505 90.0048828,17.1123047 C92.4463013,19.1956484 93.6669922,21.946272 93.6669922,25.3642578 C93.6669922,28.033542 92.9020259,30.3284409 91.3720703,32.2490234 C89.8421147,34.169606 87.8239058,35.3984348 85.3173828,35.9355469 Z M78.2373047,31.6142578 L80.0439453,31.6142578 C85.431342,31.6142578 88.125,29.5553591 88.125,25.4375 C88.125,21.5800588 85.5045835,19.6513672 80.2636719,19.6513672 L78.2373047,19.6513672 L78.2373047,31.6142578 Z M124.794922,42.8447266 L108.657227,42.8447266 L104.458008,52 L98.3300781,52 L116.982422,11.9365234 L134.975586,52 L128.75,52 L124.794922,42.8447266 Z M122.475586,37.4980469 L116.884766,24.6806641 L111.025391,37.4980469 L122.475586,37.4980469 Z M139.6875,52 L139.6875,11.7412109 L167.177734,40.5009766 L167.177734,14.3046875 L172.866211,14.3046875 L172.866211,54.2949219 L145.375977,25.6083984 L145.375977,52 L139.6875,52 Z M181.899414,52 L181.899414,14.3046875 L189.80957,14.3046875 C193.601907,14.3046875 196.596669,14.6790327 198.793945,15.4277344 C201.153983,16.1601599 203.294261,17.4052646 205.214844,19.1630859 C209.104837,22.7112808 211.049805,27.3743201 211.049805,33.1523438 C211.049805,38.9466436 209.023458,43.6340967 204.970703,47.2148438 C202.936188,49.0052173 200.804048,50.250322 198.574219,50.9501953 C196.490875,51.6500686 193.536803,52 189.711914,52 L181.899414,52 Z M187.587891,46.6533203 L190.151367,46.6533203 C192.706719,46.6533203 194.830721,46.3847683 196.523438,45.8476562 C198.216154,45.2779919 199.746087,44.3746807 201.113281,43.1376953 C203.912774,40.582344 205.3125,37.2539268 205.3125,33.1523438 C205.3125,29.0182085 203.92905,25.6653774 201.162109,23.09375 C198.671863,20.7988167 195.001652,19.6513672 190.151367,19.6513672 L187.587891,19.6513672 L187.587891,46.6533203 Z M233.632812,52 L233.632812,11.7412109 L261.123047,40.5009766 L261.123047,14.3046875 L266.811523,14.3046875 L266.811523,54.2949219 L239.321289,25.6083984 L239.321289,52 L233.632812,52 Z M298.28125,42.8447266 L282.143555,42.8447266 L277.944336,52 L271.816406,52 L290.46875,11.9365234 L308.461914,52 L302.236328,52 L298.28125,42.8447266 Z M295.961914,37.4980469 L290.371094,24.6806641 L284.511719,37.4980469 L295.961914,37.4980469 Z M311.855469,52 L319.790039,11.4726562 L332.729492,40.7695312 L346.132812,11.4726562 L353.261719,52 L347.426758,52 L343.789062,29.2460938 L332.631836,53.7333984 L321.791992,29.2216797 L317.739258,52 L311.855469,52 Z M382.045898,19.6513672 L366.933594,19.6513672 L366.933594,28.7089844 L381.606445,28.7089844 L381.606445,34.0556641 L366.933594,34.0556641 L366.933594,46.6533203 L382.045898,46.6533203 L382.045898,52 L361.245117,52 L361.245117,14.3046875 L382.045898,14.3046875 L382.045898,19.6513672 Z" id="BRAND-NAME"></path>
                <circle id="Oval" cx="6.5" cy="33.5" r="6.5"></circle>
                <circle id="Oval" cx="416.5" cy="33.5" r="6.5"></circle>
            </g>
        </g>
    </g>
</svg>