<?xml version="1.0" encoding="UTF-8"?>
<svg width="360px" height="62px" viewBox="0 0 360 62" version="1.1" xmlns="http://www.w3.org/2000/svg" xmlns:xlink="http://www.w3.org/1999/xlink">
    <!-- Generator: Sketch 52.2 (67145) - http://www.bohemiancoding.com/sketch -->
    <title>brand-1</title>
    <desc>Created with Sketch.</desc>
    <g id="Page-1" stroke="none" stroke-width="1" fill="none" fill-rule="evenodd">
        <g id="Test-Copy" transform="translate(-971.000000, -384.000000)">
            <g id="brand-1" transform="translate(972.000000, 384.000000)">
                <path d="M21.5277798,28 C23.0277873,28 24.2694416,27.8083352 25.2527798,27.425 C26.2361181,27.0416647 26.7277798,26.2333395 26.7277798,25 C26.7277798,23.7666605 26.2361181,22.9583353 25.2527798,22.575 C24.2694416,22.1916648 23.0277873,22 21.5277798,22 L11.9777798,22 L11.9777798,28 L21.5277798,28 Z M21.5277798,39.4 C23.6277903,39.4 25.1361086,39.0750033 26.0527798,38.425 C26.9694511,37.7749967 27.4277798,36.916672 27.4277798,35.85 C27.4277798,34.783328 26.9694511,33.9250033 26.0527798,33.275 C25.1361086,32.6249967 23.6277903,32.3 21.5277798,32.3 L11.9777798,32.3 L11.9777798,39.4 L21.5277798,39.4 Z M20.5277798,17.7 C22.0611208,17.7 23.5444393,17.8249987 24.9777798,18.075 C26.4111203,18.3250012 27.6777743,18.7249973 28.7777798,19.275 C29.8777853,19.8250027 30.7611098,20.5416622 31.4277798,21.425 C32.0944498,22.3083377 32.4277798,23.3999935 32.4277798,24.7 C32.4277798,26.2666745 31.9444513,27.4749958 30.9777798,28.325 C30.0111083,29.1750043 28.8611198,29.833331 27.5277798,30.3 L27.5277798,30.4 C29.0944543,30.866669 30.4194411,31.6083282 31.5027798,32.625 C32.5861186,33.6416718 33.1277798,35.0999905 33.1277798,37 C33.1277798,38.000005 32.9111153,38.9249958 32.4777798,39.775 C32.0444443,40.6250043 31.4027841,41.3666635 30.5527798,42 C29.7027756,42.6333365 28.6611193,43.1249983 27.4277798,43.475 C26.1944403,43.8250017 24.7944543,44 23.2277798,44 L4.87777982,44 L4.87777982,43.1 C5.81111782,43.1 6.27777982,42.800003 6.27777982,42.2 L6.27777982,19.5 C6.27777982,18.899997 5.81111782,18.6 4.87777982,18.6 L4.87777982,17.7 L20.5277798,17.7 Z M58.0500018,29.4 C59.2500078,29.4 60.2499978,29.3083342 61.0500018,29.125 C61.8500058,28.9416657 62.4833328,28.683335 62.9500018,28.35 C63.4166708,28.016665 63.7500008,27.6250023 63.9500018,27.175 C64.1500028,26.7249977 64.2500018,26.233336 64.2500018,25.7 C64.2500018,25.166664 64.1500028,24.6750022 63.9500018,24.225 C63.7500008,23.7749977 63.4166708,23.383335 62.9500018,23.05 C62.4833328,22.716665 61.8500058,22.4583343 61.0500018,22.275 C60.2499978,22.0916657 59.2500078,22 58.0500018,22 L49.4000018,22 L49.4000018,29.4 L58.0500018,29.4 Z M59.3500018,17.7 C60.9500098,17.7 62.3999953,17.8416652 63.7000018,18.125 C65.0000083,18.4083347 66.1166638,18.8583302 67.0500018,19.475 C67.9833398,20.0916697 68.6999993,20.8916617 69.2000018,21.875 C69.7000043,22.8583382 69.9500018,24.0666595 69.9500018,25.5 C69.9500018,27.700011 69.3000083,29.3833275 68.0000018,30.55 C66.6999953,31.7166725 64.9500128,32.499998 62.7500018,32.9 L69.4000018,42.4 C69.6333363,42.733335 69.9083336,42.933333 70.2250018,43 C70.5416701,43.066667 70.8333338,43.1 71.1000018,43.1 L71.1000018,44 L61.7500018,44 L61.7500018,43.1 C62.0500033,43.1 62.3083341,43.0500005 62.5250018,42.95 C62.7416696,42.8499995 62.8500018,42.7166675 62.8500018,42.55 C62.8500018,42.3833325 62.7833358,42.1916678 62.6500018,41.975 C62.5166678,41.7583322 62.3166698,41.4666685 62.0500018,41.1 L56.5500018,33.3 L49.4000018,33.3 L49.4000018,42.2 C49.4000018,42.5000015 49.5083341,42.7249992 49.7250018,42.875 C49.9416696,43.0250008 50.3333323,43.1 50.9000018,43.1 L50.9000018,44 L42.2500018,44 L42.2500018,43.1 C43.2166733,43.1 43.7000018,42.800003 43.7000018,42.2 L43.7000018,19.5 C43.7000018,18.899997 43.2166733,18.6 42.2500018,18.6 L42.2500018,17.7 L59.3500018,17.7 Z M95.6722239,33.8 L91.4722239,24.5 L86.7722239,33.8 L95.6722239,33.8 Z M76.8222239,43.1 C77.2555594,43.033333 77.5972226,42.8166685 77.8472239,42.45 C78.0972251,42.0833315 78.3388894,41.666669 78.5722239,41.2 L87.8222239,21.75 C88.0555584,21.3166645 88.2638896,20.9166685 88.4472239,20.55 C88.6305581,20.1833315 88.7222239,19.866668 88.7222239,19.6 C88.7222239,19.266665 88.6055584,19.033334 88.3722239,18.9 C88.1388894,18.766666 87.8888919,18.666667 87.6222239,18.6 L87.6222239,17.7 L96.0722239,17.7 L96.0722239,18.6 C95.8388894,18.666667 95.6055584,18.7583328 95.3722239,18.875 C95.1388894,18.9916672 95.0222239,19.2333315 95.0222239,19.6 C95.0222239,19.866668 95.0805566,20.133332 95.1972239,20.4 C95.3138911,20.666668 95.4888894,21.0166645 95.7222239,21.45 L106.122224,41.8 C106.288891,42.1666685 106.513889,42.4333325 106.797224,42.6 C107.080559,42.7666675 107.405555,42.9333325 107.772224,43.1 L107.772224,44 L98.9722239,44 L98.9722239,43.1 C99.1055579,43.1 99.2722229,43.0500005 99.4722239,42.95 C99.6722249,42.8499995 99.7722239,42.700001 99.7722239,42.5 C99.7722239,42.166665 99.6388919,41.733336 99.3722239,41.2 L97.4722239,37.5 L85.2722239,37.5 L83.4722239,41.05 C83.1388889,41.7500035 82.9722239,42.2499985 82.9722239,42.55 C82.9722239,42.9166685 83.2888874,43.1 83.9222239,43.1 L83.9222239,44 L76.8222239,44 L76.8222239,43.1 Z M115.094446,43.1 C115.727782,43.1 116.044446,42.800003 116.044446,42.2 L116.044446,19.5 C116.044446,18.899997 115.727782,18.6 115.094446,18.6 L115.094446,17.7 L123.644446,17.7 L123.644446,18.6 C123.377778,18.6 123.244446,18.766665 123.244446,19.1 C123.244446,19.366668 123.577776,19.83333 124.244446,20.5 L138.594446,35.4 L138.594446,19.5 C138.594446,18.899997 138.161117,18.6 137.294446,18.6 L137.294446,17.7 L144.844446,17.7 L144.844446,18.6 C144.211109,18.6 143.894446,18.899997 143.894446,19.5 L143.894446,42.2 C143.894446,42.800003 144.211109,43.1 144.844446,43.1 L144.844446,44 L136.744446,44 L136.744446,43.1 C137.177781,43.1 137.394446,42.9500015 137.394446,42.65 C137.394446,42.4166655 137.127782,42.033336 136.594446,41.5 L121.344446,25.6 L121.344446,42.2 C121.344446,42.800003 121.727775,43.1 122.494446,43.1 L122.494446,44 L115.094446,44 L115.094446,43.1 Z M169.166668,39.7 C170.733342,39.7 172.099995,39.566668 173.266668,39.3 C174.43334,39.033332 175.399997,38.5583367 176.166668,37.875 C176.933338,37.1916633 177.508333,36.283339 177.891668,35.15 C178.275003,34.016661 178.466668,32.583342 178.466668,30.85 C178.466668,29.116658 178.275003,27.683339 177.891668,26.55 C177.508333,25.416661 176.933338,24.5083367 176.166668,23.825 C175.399997,23.1416633 174.43334,22.666668 173.266668,22.4 C172.099995,22.133332 170.733342,22 169.166668,22 L161.416668,22 L161.416668,39.7 L169.166668,39.7 Z M171.166668,17.7 C173.00001,17.7 174.708327,17.966664 176.291668,18.5 C177.875009,19.033336 179.249995,19.8416612 180.416668,20.925 C181.58334,22.0083388 182.499998,23.3749917 183.166668,25.025 C183.833338,26.6750083 184.166668,28.6166555 184.166668,30.85 C184.166668,33.0833445 183.833338,35.0249917 183.166668,36.675 C182.499998,38.3250082 181.58334,39.6916612 180.416668,40.775 C179.249995,41.8583388 177.875009,42.666664 176.291668,43.2 C174.708327,43.733336 173.00001,44 171.166668,44 L154.566668,44 L154.566668,43.1 C155.333338,43.1 155.716668,42.800003 155.716668,42.2 L155.716668,19.5 C155.716668,18.899997 155.333338,18.6 154.566668,18.6 L154.566668,17.7 L171.166668,17.7 Z M209.611112,43.1 C210.244448,43.1 210.561112,42.800003 210.561112,42.2 L210.561112,19.5 C210.561112,18.899997 210.244448,18.6 209.611112,18.6 L209.611112,17.7 L218.161112,17.7 L218.161112,18.6 C217.894444,18.6 217.761112,18.766665 217.761112,19.1 C217.761112,19.366668 218.094442,19.83333 218.761112,20.5 L233.111112,35.4 L233.111112,19.5 C233.111112,18.899997 232.677783,18.6 231.811112,18.6 L231.811112,17.7 L239.361112,17.7 L239.361112,18.6 C238.727775,18.6 238.411112,18.899997 238.411112,19.5 L238.411112,42.2 C238.411112,42.800003 238.727775,43.1 239.361112,43.1 L239.361112,44 L231.261112,44 L231.261112,43.1 C231.694447,43.1 231.911112,42.9500015 231.911112,42.65 C231.911112,42.4166655 231.644448,42.033336 231.111112,41.5 L215.861112,25.6 L215.861112,42.2 C215.861112,42.800003 216.244441,43.1 217.011112,43.1 L217.011112,44 L209.611112,44 L209.611112,43.1 Z M265.283334,33.8 L261.083334,24.5 L256.383334,33.8 L265.283334,33.8 Z M246.433334,43.1 C246.866669,43.033333 247.208333,42.8166685 247.458334,42.45 C247.708335,42.0833315 247.949999,41.666669 248.183334,41.2 L257.433334,21.75 C257.666668,21.3166645 257.875,20.9166685 258.058334,20.55 C258.241668,20.1833315 258.333334,19.866668 258.333334,19.6 C258.333334,19.266665 258.216668,19.033334 257.983334,18.9 C257.749999,18.766666 257.500002,18.666667 257.233334,18.6 L257.233334,17.7 L265.683334,17.7 L265.683334,18.6 C265.449999,18.666667 265.216668,18.7583328 264.983334,18.875 C264.749999,18.9916672 264.633334,19.2333315 264.633334,19.6 C264.633334,19.866668 264.691667,20.133332 264.808334,20.4 C264.925001,20.666668 265.099999,21.0166645 265.333334,21.45 L275.733334,41.8 C275.900001,42.1666685 276.124999,42.4333325 276.408334,42.6 C276.691669,42.7666675 277.016665,42.9333325 277.383334,43.1 L277.383334,44 L268.583334,44 L268.583334,43.1 C268.716668,43.1 268.883333,43.0500005 269.083334,42.95 C269.283335,42.8499995 269.383334,42.700001 269.383334,42.5 C269.383334,42.166665 269.250002,41.733336 268.983334,41.2 L267.083334,37.5 L254.883334,37.5 L253.083334,41.05 C252.749999,41.7500035 252.583334,42.2499985 252.583334,42.55 C252.583334,42.9166685 252.899997,43.1 253.533334,43.1 L253.533334,44 L246.433334,44 L246.433334,43.1 Z M284.555556,43.1 C284.822224,43.1 285.055555,43.0250008 285.255556,42.875 C285.455557,42.7249992 285.555556,42.5000015 285.555556,42.2 L285.555556,19.4 C285.555556,19.0999985 285.455557,18.8916673 285.255556,18.775 C285.055555,18.6583327 284.822224,18.6 284.555556,18.6 L284.555556,17.7 L293.905556,17.7 L293.905556,18.6 C293.738888,18.6 293.56389,18.6499995 293.380556,18.75 C293.197222,18.8500005 293.105556,18.999999 293.105556,19.2 C293.105556,19.3666675 293.172222,19.583332 293.305556,19.85 C293.43889,20.116668 293.588888,20.3999985 293.755556,20.7 L300.905556,33.7 L308.105556,20.85 C308.33889,20.4166645 308.513889,20.0750012 308.630556,19.825 C308.747223,19.5749988 308.805556,19.350001 308.805556,19.15 C308.805556,18.7833315 308.588891,18.6 308.155556,18.6 L308.155556,17.7 L317.405556,17.7 L317.405556,18.6 C317.138888,18.6 316.905557,18.6583327 316.705556,18.775 C316.505555,18.8916673 316.405556,19.0999985 316.405556,19.4 L316.405556,42.2 C316.405556,42.5000015 316.505555,42.7249992 316.705556,42.875 C316.905557,43.0250008 317.138888,43.1 317.405556,43.1 L317.405556,44 L309.555556,44 L309.555556,43.1 C310.45556,43.1 310.905556,42.800003 310.905556,42.2 L310.905556,25.6 L310.805556,25.6 L300.755556,44 L300.605556,44 L290.755556,25.55 L290.655556,25.55 L290.655556,42.2 C290.655556,42.800003 291.122218,43.1 292.055556,43.1 L292.055556,44 L284.555556,44 L284.555556,43.1 Z M352.227778,23.1 C352.227778,22.7333315 352.086113,22.4583343 351.802778,22.275 C351.519443,22.0916657 351.027781,22 350.327778,22 L334.127778,22 L334.127778,28.2 L343.927778,28.2 C344.594448,28.2 345.111109,28.1083342 345.477778,27.925 C345.844446,27.7416657 346.027778,27.2666705 346.027778,26.5 L346.927778,26.5 L346.927778,34.3 L346.027778,34.3 C346.027778,33.5333295 345.844446,33.0416678 345.477778,32.825 C345.111109,32.6083323 344.594448,32.5 343.927778,32.5 L334.127778,32.5 L334.127778,39.4 L350.827778,39.4 C351.32778,39.4 351.73611,39.2833345 352.052778,39.05 C352.369446,38.8166655 352.527778,38.500002 352.527778,38.1 L353.427778,38.1 L353.427778,44.95 L352.527778,44.95 C352.527778,44.4499975 352.369446,44.166667 352.052778,44.1 C351.73611,44.033333 351.32778,44 350.827778,44 L327.527778,44 L327.527778,43.1 C327.761112,43.1 327.969444,43.0250008 328.152778,42.875 C328.336112,42.7249992 328.427778,42.5000015 328.427778,42.2 L328.427778,19.5 C328.427778,19.1999985 328.336112,18.9750007 328.152778,18.825 C327.969444,18.6749992 327.761112,18.6 327.527778,18.6 L327.527778,17.7 L350.327778,17.7 C351.027781,17.7 351.519443,17.5916677 351.802778,17.375 C352.086113,17.1583323 352.227778,16.8666685 352.227778,16.5 L353.127778,16.5 L353.127778,23.1 L352.227778,23.1 Z" id="BRAND-NAME" fill="#000000"></path>
                <path d="M0,1 L358,1" id="Line" stroke="#111111" stroke-width="2" stroke-linecap="square"></path>
                <path d="M0,61 L358,61" id="Line" stroke="#111111" stroke-width="2" stroke-linecap="square"></path>
            </g>
        </g>
    </g>
</svg>