<?xml version="1.0" encoding="UTF-8"?>
<svg width="625px" height="558px" viewBox="0 0 625 558" version="1.1" xmlns="http://www.w3.org/2000/svg" xmlns:xlink="http://www.w3.org/1999/xlink">
    <!-- Generator: Sketch 52.2 (67145) - http://www.bohemiancoding.com/sketch -->
    <title>Group 2</title>
    <desc>Created with Sketch.</desc>
    <defs>
        <rect id="path-1" x="7" y="5" width="625" height="558"></rect>
    </defs>
    <g id="Page-1" stroke="none" stroke-width="1" fill="none" fill-rule="evenodd">
        <g id="Group-2" transform="translate(-7.000000, -5.000000)">
            <mask id="mask-2" fill="white">
                <use xlink:href="#path-1"></use>
            </mask>
            <rect stroke="#979797" x="7.5" y="5.5" width="624" height="557"></rect>
            <polygon id="Path" stroke="#B4B4B4" stroke-width="4" mask="url(#mask-2)" points="137.355469 173.863281 137.355469 306.484375 146.039062 330.152344 146.039062 342.347656 151.546875 366.152344 157.578125 407.890625 157.578125 474.574219 190.574219 438.710938 206.65625 401.085938 233.433594 391.75 267.578125 386.492188 299.546875 391.75 339.1875 391.75 348.582031 330.152344 312.539062 330.152344 312.539062 314.324219 305.21875 276.0625 286.240234 276.0625 242.96875 248.226562 214.867188 248.226562 183.464844 217.300781 167 211.785156"></polygon>
            <polyline id="Path-2" stroke="#B4B4B4" stroke-width="4" mask="url(#mask-2)" points="348.582031 330.941406 362.03125 330.941406 390.523438 305.78125 409.480469 305.78125 426.242188 298.300781 477.257813 286.375 491.816406 298.300781 513.660156 298.300781 520.777344 257.042969 491.816406 193.644531 491.816406 116.074219 426.242188 64.3515625 348.582031 41.6640625 333.851563 27.84375 300.46875 27.84375 282.433594 52.546875 187.417969 52.546875 152.175781 41.6640625 146.730469 75.0898438 152.175781 130.988281 152.175781 160.222656 135.725586 170.024414"></polyline>
            <polyline id="Path-3" stroke="#B4B4B4" stroke-width="4" mask="url(#mask-2)" points="337.649414 392.21582 348.582031 408.804688 355.482422 438.572266 363.521484 461.736328 393.369141 477.949219 398.822266 491.033203 450.675781 494.759766 478.736328 477.949219 498.525391 438.572266 503.443359 414.582031 523.564453 380.007812 511.150391 308.837891 513.943359 300.371094"></polyline>
            <g id="Group" mask="url(#mask-2)">
                <g transform="translate(405.000000, 288.000000)">
                    <path d="M0.6821843,2.00819672 C0.597220712,2.04918033 0.597220712,2.13114754 0.639702506,2.21311475 C1.53182018,3.60655738 2.63634682,5.77868852 2.63634682,8.36065574 C2.63634682,11.557377 1.82919274,13.3606557 1.10700224,14.9590164 C0.46977533,16.352459 -0.0400061982,17.5409836 0.00247559584,19.6721311 C0.0449573898,22.5 3.65590988,23.2786885 7.35182596,23.852459 C7.81912569,23.9344262 8.20146184,23.9754098 8.54131619,24.057377 C9.34847028,24.2213115 10.240588,24.2622951 11.0902238,24.3442623 C12.4496412,24.4262295 13.8090587,24.5491803 14.8711035,25 C14.9135853,25 14.9560671,25 14.9985489,25 C16.0605937,24.5491803 17.4200111,24.4262295 18.7794286,24.3442623 C19.6290644,24.2622951 20.5211821,24.2213115 21.3283362,24.057377 C21.6681905,23.9754098 22.0930085,23.9344262 22.5178264,23.852459 C26.2137425,23.3196721 29.824695,22.5409836 29.8671768,19.6721311 C29.9096586,17.5409836 29.3573953,16.352459 28.7626501,14.9590164 C28.0404596,13.3606557 27.2333056,11.5163934 27.2333056,8.36065574 C27.2333056,5.77868852 28.3378322,3.60655738 29.2299499,2.21311475 C29.2724317,2.13114754 29.2724317,2.04918033 29.1874681,2.00819672 L26.4261515,0.12295082 C26.3836697,0.0819672131 26.3411879,0.0819672131 26.2562243,0.12295082 C24.7268797,0.737704918 22.7302354,0.901639344 21.158409,0.901639344 C19.0768011,0.901639344 16.5703753,0.614754098 14.9560671,0 C14.9135853,0 14.8711035,0 14.8286217,0 C13.2143135,0.614754098 10.7078877,0.901639344 8.62627978,0.901639344 C7.0544534,0.901639344 5.05780908,0.737704918 3.5284645,0.12295082 C3.48598271,0.12295082 3.44350091,0.12295082 3.35853732,0.12295082 L0.6821843,2.00819672 Z" id="Path" fill="#FFFFFF"></path>
                    <path d="M13.474,8.654 L9.769,17 L8.716,17 L12.525,8.628 L8.014,8.628 L8.014,7.796 L13.474,7.796 L13.474,8.654 Z M18.31,7.562 C18.8820029,7.562 19.3608314,7.70283192 19.7465,7.9845 C20.1321686,8.26616807 20.4419988,8.63449772 20.676,9.0895 C20.9100012,9.54450227 21.0768328,10.0623304 21.1765,10.643 C21.2761672,11.2236696 21.326,11.812997 21.326,12.411 C21.326,13.009003 21.2761672,13.5961638 21.1765,14.1725 C21.0768328,14.7488362 20.9100012,15.2644977 20.676,15.7195 C20.4419988,16.1745023 20.1321686,16.5406653 19.7465,16.818 C19.3608314,17.0953347 18.8820029,17.234 18.31,17.234 C17.7293304,17.234 17.2461686,17.0953347 16.8605,16.818 C16.4748314,16.5406653 16.1650012,16.1745023 15.931,15.7195 C15.6969988,15.2644977 15.5323338,14.7488362 15.437,14.1725 C15.3416662,13.5961638 15.294,13.009003 15.294,12.411 C15.294,11.812997 15.3416662,11.2236696 15.437,10.643 C15.5323338,10.0623304 15.6969988,9.54450227 15.931,9.0895 C16.1650012,8.63449772 16.4748314,8.26616807 16.8605,7.9845 C17.2461686,7.70283192 17.7293304,7.562 18.31,7.562 Z M18.31,8.355 C17.9026646,8.355 17.564668,8.48066541 17.296,8.732 C17.027332,8.98333459 16.8150008,9.30399805 16.659,9.694 C16.5029992,10.0840019 16.394667,10.5194976 16.334,11.0005 C16.273333,11.4815024 16.243,11.9516644 16.243,12.411 C16.243,12.8703356 16.273333,13.3383309 16.334,13.815 C16.394667,14.291669 16.5029992,14.7228314 16.659,15.1085 C16.8150008,15.4941686 17.027332,15.8104988 17.296,16.0575 C17.564668,16.3045012 17.9026646,16.428 18.31,16.428 C18.7086687,16.428 19.042332,16.3045012 19.311,16.0575 C19.579668,15.8104988 19.7919992,15.4941686 19.948,15.1085 C20.1040008,14.7228314 20.2144997,14.291669 20.2795,13.815 C20.3445003,13.3383309 20.377,12.8703356 20.377,12.411 C20.377,11.9516644 20.3445003,11.4815024 20.2795,11.0005 C20.2144997,10.5194976 20.1040008,10.0840019 19.948,9.694 C19.7919992,9.30399805 19.579668,8.98333459 19.311,8.732 C19.042332,8.48066541 18.7086687,8.355 18.31,8.355 Z" id="70" fill="#111111"></path>
                </g>
            </g>
            <g id="Group" mask="url(#mask-2)">
                <g transform="translate(196.000000, 230.000000)">
                    <path d="M0.6821843,2.00819672 C0.597220712,2.04918033 0.597220712,2.13114754 0.639702506,2.21311475 C1.53182018,3.60655738 2.63634682,5.77868852 2.63634682,8.36065574 C2.63634682,11.557377 1.82919274,13.3606557 1.10700224,14.9590164 C0.46977533,16.352459 -0.0400061982,17.5409836 0.00247559584,19.6721311 C0.0449573898,22.5 3.65590988,23.2786885 7.35182596,23.852459 C7.81912569,23.9344262 8.20146184,23.9754098 8.54131619,24.057377 C9.34847028,24.2213115 10.240588,24.2622951 11.0902238,24.3442623 C12.4496412,24.4262295 13.8090587,24.5491803 14.8711035,25 C14.9135853,25 14.9560671,25 14.9985489,25 C16.0605937,24.5491803 17.4200111,24.4262295 18.7794286,24.3442623 C19.6290644,24.2622951 20.5211821,24.2213115 21.3283362,24.057377 C21.6681905,23.9754098 22.0930085,23.9344262 22.5178264,23.852459 C26.2137425,23.3196721 29.824695,22.5409836 29.8671768,19.6721311 C29.9096586,17.5409836 29.3573953,16.352459 28.7626501,14.9590164 C28.0404596,13.3606557 27.2333056,11.5163934 27.2333056,8.36065574 C27.2333056,5.77868852 28.3378322,3.60655738 29.2299499,2.21311475 C29.2724317,2.13114754 29.2724317,2.04918033 29.1874681,2.00819672 L26.4261515,0.12295082 C26.3836697,0.0819672131 26.3411879,0.0819672131 26.2562243,0.12295082 C24.7268797,0.737704918 22.7302354,0.901639344 21.158409,0.901639344 C19.0768011,0.901639344 16.5703753,0.614754098 14.9560671,0 C14.9135853,0 14.8711035,0 14.8286217,0 C13.2143135,0.614754098 10.7078877,0.901639344 8.62627978,0.901639344 C7.0544534,0.901639344 5.05780908,0.737704918 3.5284645,0.12295082 C3.48598271,0.12295082 3.44350091,0.12295082 3.35853732,0.12295082 L0.6821843,2.00819672 Z" id="Path" fill="#FFFFFF"></path>
                    <path d="M9.613,11.813 L9.639,11.839 C9.77766736,11.7349995 9.97266541,11.652667 10.224,11.592 C10.4753346,11.531333 10.7179988,11.501 10.952,11.501 C11.3506687,11.501 11.721165,11.5703326 12.0635,11.709 C12.405835,11.8476674 12.7026654,12.0404988 12.954,12.2875 C13.2053346,12.5345012 13.4024993,12.8334982 13.5455,13.1845 C13.6885007,13.5355018 13.76,13.9189979 13.76,14.335 C13.76,14.7683355 13.6863341,15.1626649 13.539,15.518 C13.3916659,15.8733351 13.183668,16.1766654 12.915,16.428 C12.646332,16.6793346 12.3300018,16.8764993 11.966,17.0195 C11.6019982,17.1625007 11.2033355,17.234 10.77,17.234 C10.3366645,17.234 9.93800182,17.1625007 9.574,17.0195 C9.20999818,16.8764993 8.89366801,16.6793346 8.625,16.428 C8.35633199,16.1766654 8.14833407,15.8733351 8.001,15.518 C7.85366593,15.1626649 7.78,14.7683355 7.78,14.335 C7.78,13.8583309 7.86233251,13.4163354 8.027,13.009 C8.19166749,12.6016646 8.38666554,12.2116685 8.612,11.839 L11.121,7.796 L12.2,7.796 L9.613,11.813 Z M8.716,14.335 C8.716,14.6383348 8.76583283,14.9178321 8.8655,15.1735 C8.96516717,15.4291679 9.10599909,15.6501657 9.288,15.8365 C9.47000091,16.0228343 9.68666541,16.1701661 9.938,16.2785 C10.1893346,16.3868339 10.4666652,16.441 10.77,16.441 C11.0733349,16.441 11.3506654,16.3868339 11.602,16.2785 C11.8533346,16.1701661 12.0699991,16.0228343 12.252,15.8365 C12.4340009,15.6501657 12.5748328,15.4291679 12.6745,15.1735 C12.7741672,14.9178321 12.824,14.6383348 12.824,14.335 C12.824,14.0403319 12.7763338,13.7651679 12.681,13.5095 C12.5856662,13.2538321 12.4491676,13.0328343 12.2715,12.8465 C12.0938324,12.6601657 11.8771679,12.5150005 11.6215,12.411 C11.3658321,12.3069995 11.0820016,12.255 10.77,12.255 C10.4579984,12.255 10.1741679,12.3069995 9.9185,12.411 C9.66283206,12.5150005 9.44616756,12.6601657 9.2685,12.8465 C9.09083245,13.0328343 8.95433381,13.2538321 8.859,13.5095 C8.76366619,13.7651679 8.716,14.0403319 8.716,14.335 Z M20.715,8.628 L16.88,8.628 L16.815,11.475 C17.0143343,11.4056663 17.2244989,11.3536668 17.4455,11.319 C17.6665011,11.2843332 17.880999,11.267 18.089,11.267 C18.5223355,11.267 18.9209982,11.3363326 19.285,11.475 C19.6490018,11.6136674 19.965332,11.8108321 20.234,12.0665 C20.502668,12.3221679 20.7106659,12.6276649 20.858,12.983 C21.0053341,13.3383351 21.079,13.7283312 21.079,14.153 C21.079,14.5950022 21.0053341,15.0044981 20.858,15.3815 C20.7106659,15.7585019 20.502668,16.0834986 20.234,16.3565 C19.965332,16.6295014 19.6425019,16.8439992 19.2655,17 C18.8884981,17.1560008 18.4746689,17.234 18.024,17.234 C17.3566633,17.234 16.7933356,17.0823348 16.334,16.779 C15.8746644,16.4756652 15.5193346,16.0683359 15.268,15.557 L16.113,15.18 C16.2776675,15.5613352 16.5268317,15.8646655 16.8605,16.09 C17.1941683,16.3153345 17.5646646,16.428 17.972,16.428 C18.2840016,16.428 18.5721653,16.3738339 18.8365,16.2655 C19.1008347,16.1571661 19.3283324,16.005501 19.519,15.8105 C19.7096676,15.615499 19.8591661,15.383668 19.9675,15.115 C20.0758339,14.846332 20.13,14.5560016 20.13,14.244 C20.13,13.9059983 20.0715006,13.6005014 19.9545,13.3275 C19.8374994,13.0544986 19.6771677,12.8226676 19.4735,12.632 C19.2698323,12.4413324 19.0293347,12.2940005 18.752,12.19 C18.4746653,12.0859995 18.171335,12.034 17.842,12.034 C17.512665,12.034 17.1855016,12.0794995 16.8605,12.1705 C16.5354984,12.2615005 16.2256681,12.3849992 15.931,12.541 L16.022,7.796 L20.715,7.796 L20.715,8.628 Z" id="65" fill="#111111"></path>
                </g>
            </g>
            <g id="Group" mask="url(#mask-2)">
                <g transform="translate(495.000000, 218.000000)">
                    <path d="M0.6821843,2.00819672 C0.597220712,2.04918033 0.597220712,2.13114754 0.639702506,2.21311475 C1.53182018,3.60655738 2.63634682,5.77868852 2.63634682,8.36065574 C2.63634682,11.557377 1.82919274,13.3606557 1.10700224,14.9590164 C0.46977533,16.352459 -0.0400061982,17.5409836 0.00247559584,19.6721311 C0.0449573898,22.5 3.65590988,23.2786885 7.35182596,23.852459 C7.81912569,23.9344262 8.20146184,23.9754098 8.54131619,24.057377 C9.34847028,24.2213115 10.240588,24.2622951 11.0902238,24.3442623 C12.4496412,24.4262295 13.8090587,24.5491803 14.8711035,25 C14.9135853,25 14.9560671,25 14.9985489,25 C16.0605937,24.5491803 17.4200111,24.4262295 18.7794286,24.3442623 C19.6290644,24.2622951 20.5211821,24.2213115 21.3283362,24.057377 C21.6681905,23.9754098 22.0930085,23.9344262 22.5178264,23.852459 C26.2137425,23.3196721 29.824695,22.5409836 29.8671768,19.6721311 C29.9096586,17.5409836 29.3573953,16.352459 28.7626501,14.9590164 C28.0404596,13.3606557 27.2333056,11.5163934 27.2333056,8.36065574 C27.2333056,5.77868852 28.3378322,3.60655738 29.2299499,2.21311475 C29.2724317,2.13114754 29.2724317,2.04918033 29.1874681,2.00819672 L26.4261515,0.12295082 C26.3836697,0.0819672131 26.3411879,0.0819672131 26.2562243,0.12295082 C24.7268797,0.737704918 22.7302354,0.901639344 21.158409,0.901639344 C19.0768011,0.901639344 16.5703753,0.614754098 14.9560671,0 C14.9135853,0 14.8711035,0 14.8286217,0 C13.2143135,0.614754098 10.7078877,0.901639344 8.62627978,0.901639344 C7.0544534,0.901639344 5.05780908,0.737704918 3.5284645,0.12295082 C3.48598271,0.12295082 3.44350091,0.12295082 3.35853732,0.12295082 L0.6821843,2.00819672 Z" id="Path" fill="#FFFFFF"></path>
                    <path d="M8.668,13.958 L10.02,13.958 L10.02,14.777 L8.668,14.777 L8.668,17 L7.758,17 L7.758,14.777 L3.546,14.777 L3.546,13.867 L7.446,7.796 L8.668,7.796 L8.668,13.958 Z M7.758,8.849 L7.732,8.849 L4.521,13.958 L7.758,13.958 L7.758,8.849 Z M13.153,11.813 L13.179,11.839 C13.3176674,11.7349995 13.5126654,11.652667 13.764,11.592 C14.0153346,11.531333 14.2579988,11.501 14.492,11.501 C14.8906687,11.501 15.261165,11.5703326 15.6035,11.709 C15.945835,11.8476674 16.2426654,12.0404988 16.494,12.2875 C16.7453346,12.5345012 16.9424993,12.8334982 17.0855,13.1845 C17.2285007,13.5355018 17.3,13.9189979 17.3,14.335 C17.3,14.7683355 17.2263341,15.1626649 17.079,15.518 C16.9316659,15.8733351 16.723668,16.1766654 16.455,16.428 C16.186332,16.6793346 15.8700018,16.8764993 15.506,17.0195 C15.1419982,17.1625007 14.7433355,17.234 14.31,17.234 C13.8766645,17.234 13.4780018,17.1625007 13.114,17.0195 C12.7499982,16.8764993 12.433668,16.6793346 12.165,16.428 C11.896332,16.1766654 11.6883341,15.8733351 11.541,15.518 C11.3936659,15.1626649 11.32,14.7683355 11.32,14.335 C11.32,13.8583309 11.4023325,13.4163354 11.567,13.009 C11.7316675,12.6016646 11.9266655,12.2116685 12.152,11.839 L14.661,7.796 L15.74,7.796 L13.153,11.813 Z M12.256,14.335 C12.256,14.6383348 12.3058328,14.9178321 12.4055,15.1735 C12.5051672,15.4291679 12.6459991,15.6501657 12.828,15.8365 C13.0100009,16.0228343 13.2266654,16.1701661 13.478,16.2785 C13.7293346,16.3868339 14.0066651,16.441 14.31,16.441 C14.6133349,16.441 14.8906654,16.3868339 15.142,16.2785 C15.3933346,16.1701661 15.6099991,16.0228343 15.792,15.8365 C15.9740009,15.6501657 16.1148328,15.4291679 16.2145,15.1735 C16.3141672,14.9178321 16.364,14.6383348 16.364,14.335 C16.364,14.0403319 16.3163338,13.7651679 16.221,13.5095 C16.1256662,13.2538321 15.9891676,13.0328343 15.8115,12.8465 C15.6338324,12.6601657 15.4171679,12.5150005 15.1615,12.411 C14.9058321,12.3069995 14.6220016,12.255 14.31,12.255 C13.9979984,12.255 13.7141679,12.3069995 13.4585,12.411 C13.2028321,12.5150005 12.9861676,12.6601657 12.8085,12.8465 C12.6308324,13.0328343 12.4943338,13.2538321 12.399,13.5095 C12.3036662,13.7651679 12.256,14.0403319 12.256,14.335 Z M24.255,8.628 L20.42,8.628 L20.355,11.475 C20.5543343,11.4056663 20.7644989,11.3536668 20.9855,11.319 C21.2065011,11.2843332 21.420999,11.267 21.629,11.267 C22.0623355,11.267 22.4609982,11.3363326 22.825,11.475 C23.1890018,11.6136674 23.505332,11.8108321 23.774,12.0665 C24.042668,12.3221679 24.2506659,12.6276649 24.398,12.983 C24.5453341,13.3383351 24.619,13.7283312 24.619,14.153 C24.619,14.5950022 24.5453341,15.0044981 24.398,15.3815 C24.2506659,15.7585019 24.042668,16.0834986 23.774,16.3565 C23.505332,16.6295014 23.1825019,16.8439992 22.8055,17 C22.4284981,17.1560008 22.0146689,17.234 21.564,17.234 C20.8966633,17.234 20.3333356,17.0823348 19.874,16.779 C19.4146644,16.4756652 19.0593346,16.0683359 18.808,15.557 L19.653,15.18 C19.8176675,15.5613352 20.0668317,15.8646655 20.4005,16.09 C20.7341683,16.3153345 21.1046646,16.428 21.512,16.428 C21.8240016,16.428 22.1121653,16.3738339 22.3765,16.2655 C22.6408347,16.1571661 22.8683324,16.005501 23.059,15.8105 C23.2496676,15.615499 23.3991661,15.383668 23.5075,15.115 C23.6158339,14.846332 23.67,14.5560016 23.67,14.244 C23.67,13.9059983 23.6115006,13.6005014 23.4945,13.3275 C23.3774994,13.0544986 23.2171677,12.8226676 23.0135,12.632 C22.8098323,12.4413324 22.5693347,12.2940005 22.292,12.19 C22.0146653,12.0859995 21.711335,12.034 21.382,12.034 C21.052665,12.034 20.7255016,12.0794995 20.4005,12.1705 C20.0754984,12.2615005 19.7656681,12.3849992 19.471,12.541 L19.562,7.796 L24.255,7.796 L24.255,8.628 Z" id="465" fill="#111111"></path>
                </g>
            </g>
            <path d="M279.095,368 L279.095,357.38 L281.675,357.38 L281.675,368 L279.095,368 Z M288.635,368 L288.635,363.92 C288.635,363.709999 288.6175,363.510001 288.5825,363.32 C288.5475,363.129999 288.49,362.962501 288.41,362.8175 C288.33,362.672499 288.217501,362.5575 288.0725,362.4725 C287.927499,362.3875 287.745001,362.345 287.525,362.345 C287.304999,362.345 287.112501,362.3875 286.9475,362.4725 C286.782499,362.5575 286.645001,362.674999 286.535,362.825 C286.424999,362.975001 286.3425,363.147499 286.2875,363.3425 C286.2325,363.537501 286.205,363.739999 286.205,363.95 L286.205,368 L283.73,368 L283.73,360.53 L286.115,360.53 L286.115,361.565 L286.145,361.565 C286.235,361.404999 286.352499,361.247501 286.4975,361.0925 C286.642501,360.937499 286.812499,360.805001 287.0075,360.695 C287.202501,360.584999 287.414999,360.495 287.645,360.425 C287.875001,360.355 288.119999,360.32 288.38,360.32 C288.880002,360.32 289.304998,360.409999 289.655,360.59 C290.005002,360.770001 290.287499,361.002499 290.5025,361.2875 C290.717501,361.572501 290.8725,361.899998 290.9675,362.27 C291.0625,362.640002 291.11,363.009998 291.11,363.38 L291.11,368 L288.635,368 Z M298.625,368 L298.625,367.025 L298.595,367.025 C298.354999,367.405002 298.012502,367.697499 297.5675,367.9025 C297.122498,368.107501 296.650003,368.21 296.15,368.21 C295.589997,368.21 295.090002,368.100001 294.65,367.88 C294.209998,367.659999 293.837502,367.367502 293.5325,367.0025 C293.227498,366.637498 292.995001,366.215002 292.835,365.735 C292.674999,365.254998 292.595,364.755003 292.595,364.235 C292.595,363.714997 292.677499,363.217502 292.8425,362.7425 C293.007501,362.267498 293.242498,361.850002 293.5475,361.49 C293.852502,361.129998 294.222498,360.845001 294.6575,360.635 C295.092502,360.424999 295.579997,360.32 296.12,360.32 C296.670003,360.32 297.134998,360.424999 297.515,360.635 C297.895002,360.845001 298.189999,361.074999 298.4,361.325 L298.43,361.325 L298.43,356.66 L300.89,356.66 L300.89,368 L298.625,368 Z M298.535,364.25 C298.535,364.009999 298.4925,363.775001 298.4075,363.545 C298.3225,363.314999 298.202501,363.110001 298.0475,362.93 C297.892499,362.749999 297.705001,362.605001 297.485,362.495 C297.264999,362.384999 297.015001,362.33 296.735,362.33 C296.444999,362.33 296.190001,362.384999 295.97,362.495 C295.749999,362.605001 295.565001,362.747499 295.415,362.9225 C295.264999,363.097501 295.1525,363.299999 295.0775,363.53 C295.0025,363.760001 294.965,363.994999 294.965,364.235 C294.965,364.475001 295.0025,364.712499 295.0775,364.9475 C295.1525,365.182501 295.264999,365.389999 295.415,365.57 C295.565001,365.750001 295.749999,365.894999 295.97,366.005 C296.190001,366.115001 296.444999,366.17 296.735,366.17 C297.015001,366.17 297.264999,366.115001 297.485,366.005 C297.705001,365.894999 297.892499,365.750001 298.0475,365.57 C298.202501,365.389999 298.3225,365.185001 298.4075,364.955 C298.4925,364.724999 298.535,364.490001 298.535,364.25 Z M305.51,358.145 C305.51,358.335001 305.4725,358.512499 305.3975,358.6775 C305.3225,358.842501 305.222501,358.984999 305.0975,359.105 C304.972499,359.225001 304.822501,359.32 304.6475,359.39 C304.472499,359.46 304.290001,359.495 304.1,359.495 C303.699998,359.495 303.365001,359.362501 303.095,359.0975 C302.824999,358.832499 302.69,358.515002 302.69,358.145 C302.69,357.964999 302.725,357.792501 302.795,357.6275 C302.865,357.462499 302.964999,357.320001 303.095,357.2 C303.225001,357.079999 303.374999,356.9825 303.545,356.9075 C303.715001,356.8325 303.899999,356.795 304.1,356.795 C304.290001,356.795 304.472499,356.83 304.6475,356.9 C304.822501,356.97 304.972499,357.064999 305.0975,357.185 C305.222501,357.305001 305.3225,357.447499 305.3975,357.6125 C305.4725,357.777501 305.51,357.954999 305.51,358.145 Z M302.87,368 L302.87,360.53 L305.33,360.53 L305.33,368 L302.87,368 Z M311.69,364.745 L311.375,364.745 C311.104999,364.745 310.832501,364.7575 310.5575,364.7825 C310.282499,364.8075 310.037501,364.855 309.8225,364.925 C309.607499,364.995 309.430001,365.097499 309.29,365.2325 C309.149999,365.367501 309.08,365.544999 309.08,365.765 C309.08,365.905001 309.1125,366.024999 309.1775,366.125 C309.2425,366.225001 309.324999,366.305 309.425,366.365 C309.525,366.425 309.639999,366.4675 309.77,366.4925 C309.900001,366.5175 310.024999,366.53 310.145,366.53 C310.645003,366.53 311.027499,366.392501 311.2925,366.1175 C311.557501,365.842499 311.69,365.470002 311.69,365 L311.69,364.745 Z M307.175,361.55 C307.615002,361.129998 308.127497,360.815001 308.7125,360.605 C309.297503,360.394999 309.894997,360.29 310.505,360.29 C311.135003,360.29 311.667498,360.367499 312.1025,360.5225 C312.537502,360.677501 312.889999,360.917498 313.16,361.2425 C313.430001,361.567502 313.627499,361.977498 313.7525,362.4725 C313.877501,362.967502 313.94,363.554997 313.94,364.235 L313.94,368 L311.69,368 L311.69,367.205 L311.645,367.205 C311.454999,367.515002 311.167502,367.754999 310.7825,367.925 C310.397498,368.095001 309.980002,368.18 309.53,368.18 C309.229999,368.18 308.920002,368.14 308.6,368.06 C308.279998,367.98 307.987501,367.850001 307.7225,367.67 C307.457499,367.489999 307.240001,367.250001 307.07,366.95 C306.899999,366.649998 306.815,366.280002 306.815,365.84 C306.815,365.299997 306.962499,364.865002 307.2575,364.535 C307.552501,364.204998 307.932498,363.950001 308.3975,363.77 C308.862502,363.589999 309.379997,363.47 309.95,363.41 C310.520003,363.35 311.074997,363.32 311.615,363.32 L311.615,363.2 C311.615,362.829998 311.485001,362.557501 311.225,362.3825 C310.964999,362.207499 310.645002,362.12 310.265,362.12 C309.914998,362.12 309.577502,362.194999 309.2525,362.345 C308.927498,362.495001 308.650001,362.674999 308.42,362.885 L307.175,361.55 Z M320.675,368 L320.675,363.92 C320.675,363.709999 320.6575,363.510001 320.6225,363.32 C320.5875,363.129999 320.53,362.962501 320.45,362.8175 C320.37,362.672499 320.257501,362.5575 320.1125,362.4725 C319.967499,362.3875 319.785001,362.345 319.565,362.345 C319.344999,362.345 319.152501,362.3875 318.9875,362.4725 C318.822499,362.5575 318.685001,362.674999 318.575,362.825 C318.464999,362.975001 318.3825,363.147499 318.3275,363.3425 C318.2725,363.537501 318.245,363.739999 318.245,363.95 L318.245,368 L315.77,368 L315.77,360.53 L318.155,360.53 L318.155,361.565 L318.185,361.565 C318.275,361.404999 318.392499,361.247501 318.5375,361.0925 C318.682501,360.937499 318.852499,360.805001 319.0475,360.695 C319.242501,360.584999 319.454999,360.495 319.685,360.425 C319.915001,360.355 320.159999,360.32 320.42,360.32 C320.920003,360.32 321.344998,360.409999 321.695,360.59 C322.045002,360.770001 322.327499,361.002499 322.5425,361.2875 C322.757501,361.572501 322.9125,361.899998 323.0075,362.27 C323.1025,362.640002 323.15,363.009998 323.15,363.38 L323.15,368 L320.675,368 Z M329.42,364.745 L329.105,364.745 C328.834999,364.745 328.562501,364.7575 328.2875,364.7825 C328.012499,364.8075 327.767501,364.855 327.5525,364.925 C327.337499,364.995 327.160001,365.097499 327.02,365.2325 C326.879999,365.367501 326.81,365.544999 326.81,365.765 C326.81,365.905001 326.8425,366.024999 326.9075,366.125 C326.9725,366.225001 327.055,366.305 327.155,366.365 C327.255,366.425 327.369999,366.4675 327.5,366.4925 C327.630001,366.5175 327.754999,366.53 327.875,366.53 C328.375002,366.53 328.757499,366.392501 329.0225,366.1175 C329.287501,365.842499 329.42,365.470002 329.42,365 L329.42,364.745 Z M324.905,361.55 C325.345002,361.129998 325.857497,360.815001 326.4425,360.605 C327.027503,360.394999 327.624997,360.29 328.235,360.29 C328.865003,360.29 329.397498,360.367499 329.8325,360.5225 C330.267502,360.677501 330.619999,360.917498 330.89,361.2425 C331.160001,361.567502 331.357499,361.977498 331.4825,362.4725 C331.607501,362.967502 331.67,363.554997 331.67,364.235 L331.67,368 L329.42,368 L329.42,367.205 L329.375,367.205 C329.184999,367.515002 328.897502,367.754999 328.5125,367.925 C328.127498,368.095001 327.710002,368.18 327.26,368.18 C326.959998,368.18 326.650002,368.14 326.33,368.06 C326.009998,367.98 325.717501,367.850001 325.4525,367.67 C325.187499,367.489999 324.970001,367.250001 324.8,366.95 C324.629999,366.649998 324.545,366.280002 324.545,365.84 C324.545,365.299997 324.692499,364.865002 324.9875,364.535 C325.282501,364.204998 325.662498,363.950001 326.1275,363.77 C326.592502,363.589999 327.109997,363.47 327.68,363.41 C328.250003,363.35 328.804997,363.32 329.345,363.32 L329.345,363.2 C329.345,362.829998 329.215001,362.557501 328.955,362.3825 C328.694999,362.207499 328.375002,362.12 327.995,362.12 C327.644998,362.12 327.307502,362.194999 326.9825,362.345 C326.657498,362.495001 326.380001,362.674999 326.15,362.885 L324.905,361.55 Z M341.81,364.235 C341.81,364.755003 341.730001,365.254998 341.57,365.735 C341.409999,366.215002 341.177502,366.637498 340.8725,367.0025 C340.567498,367.367502 340.195002,367.659999 339.755,367.88 C339.314998,368.100001 338.815003,368.21 338.255,368.21 C337.794998,368.21 337.360002,368.117501 336.95,367.9325 C336.539998,367.747499 336.220001,367.495002 335.99,367.175 L335.96,367.175 L335.96,371.6 L333.5,371.6 L333.5,360.53 L335.84,360.53 L335.84,361.445 L335.885,361.445 C336.115001,361.144998 336.432498,360.882501 336.8375,360.6575 C337.242502,360.432499 337.719997,360.32 338.27,360.32 C338.810003,360.32 339.299998,360.424999 339.74,360.635 C340.180002,360.845001 340.552498,361.129998 340.8575,361.49 C341.162502,361.850002 341.397499,362.267498 341.5625,362.7425 C341.727501,363.217502 341.81,363.714997 341.81,364.235 Z M339.425,364.235 C339.425,363.994999 339.3875,363.760001 339.3125,363.53 C339.2375,363.299999 339.127501,363.097501 338.9825,362.9225 C338.837499,362.747499 338.655001,362.605001 338.435,362.495 C338.214999,362.384999 337.960001,362.33 337.67,362.33 C337.389999,362.33 337.140001,362.384999 336.92,362.495 C336.699999,362.605001 336.512501,362.749999 336.3575,362.93 C336.202499,363.110001 336.0825,363.314999 335.9975,363.545 C335.9125,363.775001 335.87,364.009999 335.87,364.25 C335.87,364.490001 335.9125,364.724999 335.9975,364.955 C336.0825,365.185001 336.202499,365.389999 336.3575,365.57 C336.512501,365.750001 336.699999,365.894999 336.92,366.005 C337.140001,366.115001 337.389999,366.17 337.67,366.17 C337.960001,366.17 338.214999,366.115001 338.435,366.005 C338.655001,365.894999 338.837499,365.750001 338.9825,365.57 C339.127501,365.389999 339.2375,365.182501 339.3125,364.9475 C339.3875,364.712499 339.425,364.475001 339.425,364.235 Z M351.275,364.235 C351.275,364.845003 351.165001,365.397498 350.945,365.8925 C350.724999,366.387502 350.425002,366.807498 350.045,367.1525 C349.664998,367.497502 349.225003,367.764999 348.725,367.955 C348.224998,368.145001 347.690003,368.24 347.12,368.24 C346.559997,368.24 346.027503,368.145001 345.5225,367.955 C345.017497,367.764999 344.577502,367.497502 344.2025,367.1525 C343.827498,366.807498 343.530001,366.387502 343.31,365.8925 C343.089999,365.397498 342.98,364.845003 342.98,364.235 C342.98,363.624997 343.089999,363.075002 343.31,362.585 C343.530001,362.094998 343.827498,361.680002 344.2025,361.34 C344.577502,360.999998 345.017497,360.740001 345.5225,360.56 C346.027503,360.379999 346.559997,360.29 347.12,360.29 C347.690003,360.29 348.224998,360.379999 348.725,360.56 C349.225003,360.740001 349.664998,360.999998 350.045,361.34 C350.425002,361.680002 350.724999,362.094998 350.945,362.585 C351.165001,363.075002 351.275,363.624997 351.275,364.235 Z M348.905,364.235 C348.905,363.994999 348.865,363.760001 348.785,363.53 C348.705,363.299999 348.590001,363.097501 348.44,362.9225 C348.289999,362.747499 348.105001,362.605001 347.885,362.495 C347.664999,362.384999 347.410001,362.33 347.12,362.33 C346.829999,362.33 346.575001,362.384999 346.355,362.495 C346.134999,362.605001 345.952501,362.747499 345.8075,362.9225 C345.662499,363.097501 345.5525,363.299999 345.4775,363.53 C345.4025,363.760001 345.365,363.994999 345.365,364.235 C345.365,364.475001 345.4025,364.709999 345.4775,364.94 C345.5525,365.170001 345.664999,365.377499 345.815,365.5625 C345.965001,365.747501 346.149999,365.894999 346.37,366.005 C346.590001,366.115001 346.844999,366.17 347.135,366.17 C347.425001,366.17 347.679999,366.115001 347.9,366.005 C348.120001,365.894999 348.304999,365.747501 348.455,365.5625 C348.605001,365.377499 348.7175,365.170001 348.7925,364.94 C348.8675,364.709999 348.905,364.475001 348.905,364.235 Z M352.865,368 L352.865,356.66 L355.355,356.66 L355.355,368 L352.865,368 Z M359.975,358.145 C359.975,358.335001 359.9375,358.512499 359.8625,358.6775 C359.7875,358.842501 359.687501,358.984999 359.5625,359.105 C359.437499,359.225001 359.287501,359.32 359.1125,359.39 C358.937499,359.46 358.755001,359.495 358.565,359.495 C358.164998,359.495 357.830001,359.362501 357.56,359.0975 C357.289999,358.832499 357.155,358.515002 357.155,358.145 C357.155,357.964999 357.19,357.792501 357.26,357.6275 C357.33,357.462499 357.429999,357.320001 357.56,357.2 C357.690001,357.079999 357.839999,356.9825 358.01,356.9075 C358.180001,356.8325 358.364999,356.795 358.565,356.795 C358.755001,356.795 358.937499,356.83 359.1125,356.9 C359.287501,356.97 359.437499,357.064999 359.5625,357.185 C359.687501,357.305001 359.7875,357.447499 359.8625,357.6125 C359.9375,357.777501 359.975,357.954999 359.975,358.145 Z M357.335,368 L357.335,360.53 L359.795,360.53 L359.795,368 L357.335,368 Z M366.14,362.735 C365.939999,362.544999 365.705001,362.385001 365.435,362.255 C365.164999,362.124999 364.880002,362.06 364.58,362.06 C364.349999,362.06 364.137501,362.105 363.9425,362.195 C363.747499,362.285 363.65,362.439999 363.65,362.66 C363.65,362.870001 363.757499,363.02 363.9725,363.11 C364.187501,363.2 364.534998,363.299999 365.015,363.41 C365.295001,363.47 365.577499,363.554999 365.8625,363.665 C366.147501,363.775001 366.404999,363.919999 366.635,364.1 C366.865001,364.280001 367.049999,364.499999 367.19,364.76 C367.330001,365.020001 367.4,365.329998 367.4,365.69 C367.4,366.160002 367.305001,366.557498 367.115,366.8825 C366.924999,367.207502 366.677502,367.469999 366.3725,367.67 C366.067498,367.870001 365.725002,368.015 365.345,368.105 C364.964998,368.195 364.585002,368.24 364.205,368.24 C363.594997,368.24 362.997503,368.142501 362.4125,367.9475 C361.827497,367.752499 361.340002,367.465002 360.95,367.085 L362.33,365.63 C362.550001,365.870001 362.819998,366.069999 363.14,366.23 C363.460002,366.390001 363.799998,366.47 364.16,366.47 C364.360001,366.47 364.557499,366.4225 364.7525,366.3275 C364.947501,366.2325 365.045,366.065001 365.045,365.825 C365.045,365.594999 364.925001,365.425001 364.685,365.315 C364.444999,365.204999 364.070003,365.090001 363.56,364.97 C363.299999,364.91 363.040001,364.83 362.78,364.73 C362.519999,364.629999 362.287501,364.495001 362.0825,364.325 C361.877499,364.154999 361.710001,363.945001 361.58,363.695 C361.449999,363.444999 361.385,363.145002 361.385,362.795 C361.385,362.344998 361.479999,361.962502 361.67,361.6475 C361.860001,361.332498 362.104999,361.075001 362.405,360.875 C362.705001,360.674999 363.037498,360.5275 363.4025,360.4325 C363.767502,360.3375 364.129998,360.29 364.49,360.29 C365.050003,360.29 365.597497,360.377499 366.1325,360.5525 C366.667503,360.727501 367.119998,360.989998 367.49,361.34 L366.14,362.735 Z" id="Indianapolis" fill="#111111" mask="url(#mask-2)"></path>
            <path d="M240.811,224.188 C240.620332,223.945332 240.371168,223.752501 240.0635,223.6095 C239.755832,223.466499 239.459001,223.395 239.173,223.395 C239.025666,223.395 238.876167,223.408 238.7245,223.434 C238.572833,223.46 238.436334,223.509833 238.315,223.5835 C238.193666,223.657167 238.091834,223.752499 238.0095,223.8695 C237.927166,223.986501 237.886,224.135999 237.886,224.318 C237.886,224.474001 237.9185,224.603999 237.9835,224.708 C238.0485,224.812001 238.143833,224.903 238.2695,224.981 C238.395167,225.059 238.544666,225.1305 238.718,225.1955 C238.891334,225.2605 239.086332,225.327666 239.303,225.397 C239.615002,225.501001 239.939998,225.615833 240.278,225.7415 C240.616002,225.867167 240.923665,226.033999 241.201,226.242 C241.478335,226.450001 241.707999,226.707832 241.89,227.0155 C242.072001,227.323168 242.163,227.706664 242.163,228.166 C242.163,228.694669 242.065501,229.151831 241.8705,229.5375 C241.675499,229.923169 241.413335,230.241665 241.084,230.493 C240.754665,230.744335 240.377669,230.930666 239.953,231.052 C239.528331,231.173334 239.090669,231.234 238.64,231.234 C237.98133,231.234 237.344336,231.119168 236.729,230.8895 C236.113664,230.659832 235.602335,230.332669 235.195,229.908 L236.651,228.426 C236.876334,228.703335 237.173165,228.935166 237.5415,229.1215 C237.909835,229.307834 238.275998,229.401 238.64,229.401 C238.804667,229.401 238.964999,229.383667 239.121,229.349 C239.277001,229.314333 239.413499,229.258 239.5305,229.18 C239.647501,229.102 239.740666,228.998001 239.81,228.868 C239.879334,228.737999 239.914,228.582001 239.914,228.4 C239.914,228.226666 239.870667,228.079334 239.784,227.958 C239.697333,227.836666 239.573834,227.726167 239.4135,227.6265 C239.253166,227.526833 239.053835,227.435834 238.8155,227.3535 C238.577165,227.271166 238.306335,227.182334 238.003,227.087 C237.708332,226.991666 237.420168,226.879001 237.1385,226.749 C236.856832,226.618999 236.605501,226.452168 236.3845,226.2485 C236.163499,226.044832 235.985834,225.797835 235.8515,225.5075 C235.717166,225.217165 235.65,224.864002 235.65,224.448 C235.65,223.936664 235.753999,223.499002 235.962,223.135 C236.170001,222.770998 236.442998,222.472001 236.781,222.238 C237.119002,222.003999 237.500331,221.832834 237.925,221.7245 C238.349669,221.616166 238.778664,221.562 239.212,221.562 C239.732003,221.562 240.262831,221.657332 240.8045,221.848 C241.346169,222.038668 241.820665,222.320331 242.228,222.693 L240.811,224.188 Z M250.717,227.737 C250.717,228.187669 250.647667,228.620998 250.509,229.037 C250.370333,229.453002 250.168835,229.819165 249.9045,230.1355 C249.640165,230.451835 249.317335,230.705332 248.936,230.896 C248.554665,231.086668 248.121336,231.182 247.636,231.182 C247.237331,231.182 246.860335,231.101834 246.505,230.9415 C246.149665,230.781166 245.872334,230.562335 245.673,230.285 L245.647,230.285 L245.647,234.12 L243.515,234.12 L243.515,224.526 L245.543,224.526 L245.543,225.319 L245.582,225.319 C245.781334,225.058999 246.056498,224.831501 246.4075,224.6365 C246.758502,224.441499 247.172331,224.344 247.649,224.344 C248.117002,224.344 248.541665,224.434999 248.923,224.617 C249.304335,224.799001 249.627165,225.045998 249.8915,225.358 C250.155835,225.670002 250.359499,226.031831 250.5025,226.4435 C250.645501,226.855169 250.717,227.286331 250.717,227.737 Z M248.65,227.737 C248.65,227.528999 248.6175,227.325334 248.5525,227.126 C248.4875,226.926666 248.392167,226.751167 248.2665,226.5995 C248.140833,226.447833 247.982668,226.324334 247.792,226.229 C247.601332,226.133666 247.380335,226.086 247.129,226.086 C246.886332,226.086 246.669668,226.133666 246.479,226.229 C246.288332,226.324334 246.125834,226.449999 245.9915,226.606 C245.857166,226.762001 245.753167,226.939666 245.6795,227.139 C245.605833,227.338334 245.569,227.541999 245.569,227.75 C245.569,227.958001 245.605833,228.161666 245.6795,228.361 C245.753167,228.560334 245.857166,228.737999 245.9915,228.894 C246.125834,229.050001 246.288332,229.175666 246.479,229.271 C246.669668,229.366334 246.886332,229.414 247.129,229.414 C247.380335,229.414 247.601332,229.366334 247.792,229.271 C247.982668,229.175666 248.140833,229.050001 248.2665,228.894 C248.392167,228.737999 248.4875,228.558168 248.5525,228.3545 C248.6175,228.150832 248.65,227.945001 248.65,227.737 Z M256.255,226.268 C256.159666,226.242 256.0665,226.224667 255.9755,226.216 C255.8845,226.207333 255.795667,226.203 255.709,226.203 C255.422999,226.203 255.182501,226.254999 254.9875,226.359 C254.792499,226.463001 254.636501,226.588666 254.5195,226.736 C254.402499,226.883334 254.318,227.043666 254.266,227.217 C254.214,227.390334 254.188,227.541999 254.188,227.672 L254.188,231 L252.056,231 L252.056,224.526 L254.11,224.526 L254.11,225.462 L254.136,225.462 C254.300667,225.132665 254.534665,224.864001 254.838,224.656 C255.141335,224.447999 255.492331,224.344 255.891,224.344 C255.977667,224.344 256.062166,224.348333 256.1445,224.357 C256.226834,224.365667 256.294,224.378667 256.346,224.396 L256.255,226.268 Z M259.518,222.459 C259.518,222.623667 259.4855,222.777499 259.4205,222.9205 C259.3555,223.063501 259.268834,223.186999 259.1605,223.291 C259.052166,223.395001 258.922167,223.477333 258.7705,223.538 C258.618833,223.598667 258.460667,223.629 258.296,223.629 C257.949332,223.629 257.659001,223.514168 257.425,223.2845 C257.190999,223.054832 257.074,222.779668 257.074,222.459 C257.074,222.302999 257.104333,222.153501 257.165,222.0105 C257.225667,221.867499 257.312333,221.744001 257.425,221.64 C257.537667,221.535999 257.667666,221.4515 257.815,221.3865 C257.962334,221.3215 258.122666,221.289 258.296,221.289 C258.460667,221.289 258.618833,221.319333 258.7705,221.38 C258.922167,221.440667 259.052166,221.522999 259.1605,221.627 C259.268834,221.731001 259.3555,221.854499 259.4205,221.9975 C259.4855,222.140501 259.518,222.294333 259.518,222.459 Z M257.23,231 L257.23,224.526 L259.362,224.526 L259.362,231 L257.23,231 Z M265.303,231 L265.303,227.464 C265.303,227.281999 265.287833,227.108667 265.2575,226.944 C265.227167,226.779333 265.177334,226.634167 265.108,226.5085 C265.038666,226.382833 264.941167,226.283167 264.8155,226.2095 C264.689833,226.135833 264.531668,226.099 264.341,226.099 C264.150332,226.099 263.983501,226.135833 263.8405,226.2095 C263.697499,226.283167 263.578334,226.384999 263.483,226.515 C263.387666,226.645001 263.316167,226.794499 263.2685,226.9635 C263.220833,227.132501 263.197,227.307999 263.197,227.49 L263.197,231 L261.052,231 L261.052,224.526 L263.119,224.526 L263.119,225.423 L263.145,225.423 C263.223,225.284333 263.324833,225.147834 263.4505,225.0135 C263.576167,224.879166 263.723499,224.764334 263.8925,224.669 C264.061501,224.573666 264.245666,224.495667 264.445,224.435 C264.644334,224.374333 264.856666,224.344 265.082,224.344 C265.515335,224.344 265.883665,224.421999 266.187,224.578 C266.490335,224.734001 266.735166,224.935499 266.9215,225.1825 C267.107834,225.429501 267.242166,225.713332 267.3245,226.034 C267.406834,226.354668 267.448,226.675332 267.448,226.996 L267.448,231 L265.303,231 Z M275.924,230.389 C275.924,231.02167 275.833001,231.571998 275.651,232.04 C275.468999,232.508002 275.213335,232.895832 274.884,233.2035 C274.554665,233.511168 274.153836,233.740833 273.6815,233.8925 C273.209164,234.044167 272.687003,234.12 272.115,234.12 C271.542997,234.12 270.955836,234.033334 270.3535,233.86 C269.751164,233.686666 269.229002,233.435335 268.787,233.106 L269.853,231.585 C270.165002,231.862335 270.509498,232.068166 270.8865,232.2025 C271.263502,232.336834 271.633998,232.404 271.998,232.404 C272.622003,232.404 273.083499,232.239335 273.3825,231.91 C273.681501,231.580665 273.831,231.143003 273.831,230.597 L273.831,230.207 L273.792,230.207 C273.592666,230.467001 273.324002,230.674999 272.986,230.831 C272.647998,230.987001 272.262336,231.065 271.829,231.065 C271.334998,231.065 270.897335,230.976168 270.516,230.7985 C270.134665,230.620832 269.811835,230.380335 269.5475,230.077 C269.283165,229.773665 269.081667,229.420502 268.943,229.0175 C268.804333,228.614498 268.735,228.187669 268.735,227.737 C268.735,227.286331 268.804333,226.857335 268.943,226.45 C269.081667,226.042665 269.283165,225.683002 269.5475,225.371 C269.811835,225.058998 270.134665,224.809834 270.516,224.6235 C270.897335,224.437166 271.330664,224.344 271.816,224.344 C272.223335,224.344 272.613331,224.426333 272.986,224.591 C273.358669,224.755667 273.657666,225.011332 273.883,225.358 L273.909,225.358 L273.909,224.526 L275.924,224.526 L275.924,230.389 Z M273.896,227.724 C273.896,227.507332 273.859167,227.299334 273.7855,227.1 C273.711833,226.900666 273.605667,226.725167 273.467,226.5735 C273.328333,226.421833 273.163668,226.302667 272.973,226.216 C272.782332,226.129333 272.565668,226.086 272.323,226.086 C272.080332,226.086 271.865834,226.129333 271.6795,226.216 C271.493166,226.302667 271.335001,226.419666 271.205,226.567 C271.074999,226.714334 270.975334,226.887666 270.906,227.087 C270.836666,227.286334 270.802,227.498666 270.802,227.724 C270.802,227.940668 270.836666,228.148666 270.906,228.348 C270.975334,228.547334 271.074999,228.722833 271.205,228.8745 C271.335001,229.026167 271.493166,229.1475 271.6795,229.2385 C271.865834,229.3295 272.080332,229.375 272.323,229.375 C272.565668,229.375 272.784499,229.3295 272.9795,229.2385 C273.174501,229.1475 273.339166,229.028334 273.4735,228.881 C273.607834,228.733666 273.711833,228.560334 273.7855,228.361 C273.859167,228.161666 273.896,227.949334 273.896,227.724 Z M286.792,231 L286.792,227.152 L283.204,227.152 L283.204,231 L280.981,231 L280.981,221.796 L283.204,221.796 L283.204,225.28 L286.792,225.28 L286.792,221.796 L289.015,221.796 L289.015,231 L286.792,231 Z M293.11,222.459 C293.11,222.623667 293.0775,222.777499 293.0125,222.9205 C292.9475,223.063501 292.860834,223.186999 292.7525,223.291 C292.644166,223.395001 292.514167,223.477333 292.3625,223.538 C292.210833,223.598667 292.052667,223.629 291.888,223.629 C291.541332,223.629 291.251001,223.514168 291.017,223.2845 C290.782999,223.054832 290.666,222.779668 290.666,222.459 C290.666,222.302999 290.696333,222.153501 290.757,222.0105 C290.817667,221.867499 290.904333,221.744001 291.017,221.64 C291.129667,221.535999 291.259666,221.4515 291.407,221.3865 C291.554334,221.3215 291.714666,221.289 291.888,221.289 C292.052667,221.289 292.210833,221.319333 292.3625,221.38 C292.514167,221.440667 292.644166,221.522999 292.7525,221.627 C292.860834,221.731001 292.9475,221.854499 293.0125,221.9975 C293.0775,222.140501 293.11,222.294333 293.11,222.459 Z M290.822,231 L290.822,224.526 L292.954,224.526 L292.954,231 L290.822,231 Z M294.67,231 L294.67,221.172 L296.828,221.172 L296.828,231 L294.67,231 Z M298.544,231 L298.544,221.172 L300.702,221.172 L300.702,231 L298.544,231 Z" id="Spring-Hill" fill="#111111" mask="url(#mask-2)"></path>
            <path d="M160.811,311.188 C160.620332,310.945332 160.371168,310.752501 160.0635,310.6095 C159.755832,310.466499 159.459001,310.395 159.173,310.395 C159.025666,310.395 158.876167,310.408 158.7245,310.434 C158.572833,310.46 158.436334,310.509833 158.315,310.5835 C158.193666,310.657167 158.091834,310.752499 158.0095,310.8695 C157.927166,310.986501 157.886,311.135999 157.886,311.318 C157.886,311.474001 157.9185,311.603999 157.9835,311.708 C158.0485,311.812001 158.143833,311.903 158.2695,311.981 C158.395167,312.059 158.544666,312.1305 158.718,312.1955 C158.891334,312.2605 159.086332,312.327666 159.303,312.397 C159.615002,312.501001 159.939998,312.615833 160.278,312.7415 C160.616002,312.867167 160.923665,313.033999 161.201,313.242 C161.478335,313.450001 161.707999,313.707832 161.89,314.0155 C162.072001,314.323168 162.163,314.706664 162.163,315.166 C162.163,315.694669 162.065501,316.151831 161.8705,316.5375 C161.675499,316.923169 161.413335,317.241665 161.084,317.493 C160.754665,317.744335 160.377669,317.930666 159.953,318.052 C159.528331,318.173334 159.090669,318.234 158.64,318.234 C157.98133,318.234 157.344336,318.119168 156.729,317.8895 C156.113664,317.659832 155.602335,317.332669 155.195,316.908 L156.651,315.426 C156.876334,315.703335 157.173165,315.935166 157.5415,316.1215 C157.909835,316.307834 158.275998,316.401 158.64,316.401 C158.804667,316.401 158.964999,316.383667 159.121,316.349 C159.277001,316.314333 159.413499,316.258 159.5305,316.18 C159.647501,316.102 159.740666,315.998001 159.81,315.868 C159.879334,315.737999 159.914,315.582001 159.914,315.4 C159.914,315.226666 159.870667,315.079334 159.784,314.958 C159.697333,314.836666 159.573834,314.726167 159.4135,314.6265 C159.253166,314.526833 159.053835,314.435834 158.8155,314.3535 C158.577165,314.271166 158.306335,314.182334 158.003,314.087 C157.708332,313.991666 157.420168,313.879001 157.1385,313.749 C156.856832,313.618999 156.605501,313.452168 156.3845,313.2485 C156.163499,313.044832 155.985834,312.797835 155.8515,312.5075 C155.717166,312.217165 155.65,311.864002 155.65,311.448 C155.65,310.936664 155.753999,310.499002 155.962,310.135 C156.170001,309.770998 156.442998,309.472001 156.781,309.238 C157.119002,309.003999 157.500331,308.832834 157.925,308.7245 C158.349669,308.616166 158.778664,308.562 159.212,308.562 C159.732003,308.562 160.262831,308.657332 160.8045,308.848 C161.346169,309.038668 161.820665,309.320331 162.228,309.693 L160.811,311.188 Z M170.717,314.737 C170.717,315.187669 170.647667,315.620998 170.509,316.037 C170.370333,316.453002 170.168835,316.819165 169.9045,317.1355 C169.640165,317.451835 169.317335,317.705332 168.936,317.896 C168.554665,318.086668 168.121336,318.182 167.636,318.182 C167.237331,318.182 166.860335,318.101834 166.505,317.9415 C166.149665,317.781166 165.872334,317.562335 165.673,317.285 L165.647,317.285 L165.647,321.12 L163.515,321.12 L163.515,311.526 L165.543,311.526 L165.543,312.319 L165.582,312.319 C165.781334,312.058999 166.056498,311.831501 166.4075,311.6365 C166.758502,311.441499 167.172331,311.344 167.649,311.344 C168.117002,311.344 168.541665,311.434999 168.923,311.617 C169.304335,311.799001 169.627165,312.045998 169.8915,312.358 C170.155835,312.670002 170.359499,313.031831 170.5025,313.4435 C170.645501,313.855169 170.717,314.286331 170.717,314.737 Z M168.65,314.737 C168.65,314.528999 168.6175,314.325334 168.5525,314.126 C168.4875,313.926666 168.392167,313.751167 168.2665,313.5995 C168.140833,313.447833 167.982668,313.324334 167.792,313.229 C167.601332,313.133666 167.380335,313.086 167.129,313.086 C166.886332,313.086 166.669668,313.133666 166.479,313.229 C166.288332,313.324334 166.125834,313.449999 165.9915,313.606 C165.857166,313.762001 165.753167,313.939666 165.6795,314.139 C165.605833,314.338334 165.569,314.541999 165.569,314.75 C165.569,314.958001 165.605833,315.161666 165.6795,315.361 C165.753167,315.560334 165.857166,315.737999 165.9915,315.894 C166.125834,316.050001 166.288332,316.175666 166.479,316.271 C166.669668,316.366334 166.886332,316.414 167.129,316.414 C167.380335,316.414 167.601332,316.366334 167.792,316.271 C167.982668,316.175666 168.140833,316.050001 168.2665,315.894 C168.392167,315.737999 168.4875,315.558168 168.5525,315.3545 C168.6175,315.150832 168.65,314.945001 168.65,314.737 Z M176.515,314.022 C176.515,313.683998 176.408834,313.393668 176.1965,313.151 C175.984166,312.908332 175.665669,312.787 175.241,312.787 C175.032999,312.787 174.842334,312.8195 174.669,312.8845 C174.495666,312.9495 174.344001,313.038333 174.214,313.151 C174.083999,313.263667 173.98,313.395833 173.902,313.5475 C173.824,313.699167 173.780667,313.857333 173.772,314.022 L176.515,314.022 Z M178.478,314.841 L178.478,315.101 C178.478,315.187667 178.473667,315.27 178.465,315.348 L173.772,315.348 C173.789333,315.530001 173.8435,315.694666 173.9345,315.842 C174.0255,315.989334 174.142499,316.117166 174.2855,316.2255 C174.428501,316.333834 174.588832,316.418333 174.7665,316.479 C174.944168,316.539667 175.128332,316.57 175.319,316.57 C175.657002,316.57 175.942999,316.507167 176.177,316.3815 C176.411001,316.255833 176.601666,316.093334 176.749,315.894 L178.231,316.83 C177.927665,317.272002 177.526836,317.612165 177.0285,317.8505 C176.530164,318.088835 175.95167,318.208 175.293,318.208 C174.807664,318.208 174.348335,318.132167 173.915,317.9805 C173.481664,317.828833 173.102502,317.607835 172.7775,317.3175 C172.452498,317.027165 172.196834,316.669669 172.0105,316.245 C171.824166,315.820331 171.731,315.335003 171.731,314.789 C171.731,314.260331 171.821999,313.781502 172.004,313.3525 C172.186001,312.923498 172.432998,312.559501 172.745,312.2605 C173.057002,311.961499 173.425331,311.729667 173.85,311.565 C174.274669,311.400333 174.733998,311.318 175.228,311.318 C175.704669,311.318 176.142331,311.398166 176.541,311.5585 C176.939669,311.718834 177.281999,311.950665 177.568,312.254 C177.854001,312.557335 178.077166,312.925664 178.2375,313.359 C178.397834,313.792335 178.478,314.286331 178.478,314.841 Z M184.263,314.022 C184.263,313.683998 184.156834,313.393668 183.9445,313.151 C183.732166,312.908332 183.413669,312.787 182.989,312.787 C182.780999,312.787 182.590334,312.8195 182.417,312.8845 C182.243666,312.9495 182.092001,313.038333 181.962,313.151 C181.831999,313.263667 181.728,313.395833 181.65,313.5475 C181.572,313.699167 181.528667,313.857333 181.52,314.022 L184.263,314.022 Z M186.226,314.841 L186.226,315.101 C186.226,315.187667 186.221667,315.27 186.213,315.348 L181.52,315.348 C181.537333,315.530001 181.5915,315.694666 181.6825,315.842 C181.7735,315.989334 181.890499,316.117166 182.0335,316.2255 C182.176501,316.333834 182.336832,316.418333 182.5145,316.479 C182.692168,316.539667 182.876332,316.57 183.067,316.57 C183.405002,316.57 183.690999,316.507167 183.925,316.3815 C184.159001,316.255833 184.349666,316.093334 184.497,315.894 L185.979,316.83 C185.675665,317.272002 185.274836,317.612165 184.7765,317.8505 C184.278164,318.088835 183.69967,318.208 183.041,318.208 C182.555664,318.208 182.096336,318.132167 181.663,317.9805 C181.229665,317.828833 180.850502,317.607835 180.5255,317.3175 C180.200498,317.027165 179.944834,316.669669 179.7585,316.245 C179.572166,315.820331 179.479,315.335003 179.479,314.789 C179.479,314.260331 179.569999,313.781502 179.752,313.3525 C179.934001,312.923498 180.180998,312.559501 180.493,312.2605 C180.805002,311.961499 181.173331,311.729667 181.598,311.565 C182.022669,311.400333 182.481998,311.318 182.976,311.318 C183.452669,311.318 183.890331,311.398166 184.289,311.5585 C184.687669,311.718834 185.029999,311.950665 185.316,312.254 C185.602001,312.557335 185.825166,312.925664 185.9855,313.359 C186.145834,313.792335 186.226,314.286331 186.226,314.841 Z M192.453,318 L192.453,317.155 L192.427,317.155 C192.218999,317.484335 191.922169,317.737832 191.5365,317.9155 C191.150831,318.093168 190.741335,318.182 190.308,318.182 C189.822664,318.182 189.389335,318.086668 189.008,317.896 C188.626665,317.705332 188.303835,317.451835 188.0395,317.1355 C187.775165,316.819165 187.573667,316.453002 187.435,316.037 C187.296333,315.620998 187.227,315.187669 187.227,314.737 C187.227,314.286331 187.298499,313.855169 187.4415,313.4435 C187.584501,313.031831 187.788165,312.670002 188.0525,312.358 C188.316835,312.045998 188.637498,311.799001 189.0145,311.617 C189.391502,311.434999 189.813998,311.344 190.282,311.344 C190.758669,311.344 191.161665,311.434999 191.491,311.617 C191.820335,311.799001 192.075999,311.998332 192.258,312.215 L192.284,312.215 L192.284,308.172 L194.416,308.172 L194.416,318 L192.453,318 Z M192.375,314.75 C192.375,314.541999 192.338167,314.338334 192.2645,314.139 C192.190833,313.939666 192.086834,313.762001 191.9525,313.606 C191.818166,313.449999 191.655668,313.324334 191.465,313.229 C191.274332,313.133666 191.057668,313.086 190.815,313.086 C190.563665,313.086 190.342668,313.133666 190.152,313.229 C189.961332,313.324334 189.801001,313.447833 189.671,313.5995 C189.540999,313.751167 189.4435,313.926666 189.3785,314.126 C189.3135,314.325334 189.281,314.528999 189.281,314.737 C189.281,314.945001 189.3135,315.150832 189.3785,315.3545 C189.4435,315.558168 189.540999,315.737999 189.671,315.894 C189.801001,316.050001 189.961332,316.175666 190.152,316.271 C190.342668,316.366334 190.563665,316.414 190.815,316.414 C191.057668,316.414 191.274332,316.366334 191.465,316.271 C191.655668,316.175666 191.818166,316.050001 191.9525,315.894 C192.086834,315.737999 192.190833,315.560334 192.2645,315.361 C192.338167,315.161666 192.375,314.958001 192.375,314.75 Z M204.348,318 L202.203,318 L200.929,313.97 L200.903,313.97 L199.655,318 L197.51,318 L195.274,311.526 L197.575,311.526 L198.693,315.621 L198.732,315.621 L199.889,311.526 L202.034,311.526 L203.23,315.621 L203.256,315.621 L204.387,311.526 L206.597,311.526 L204.348,318 Z M211.251,315.179 L210.978,315.179 C210.743999,315.179 210.507835,315.189833 210.2695,315.2115 C210.031165,315.233167 209.818834,315.274333 209.6325,315.335 C209.446166,315.395667 209.292334,315.484499 209.171,315.6015 C209.049666,315.718501 208.989,315.872332 208.989,316.063 C208.989,316.184334 209.017166,316.288333 209.0735,316.375 C209.129834,316.461667 209.201333,316.531 209.288,316.583 C209.374667,316.635 209.474333,316.671833 209.587,316.6935 C209.699667,316.715167 209.807999,316.726 209.912,316.726 C210.345336,316.726 210.676832,316.606835 210.9065,316.3685 C211.136168,316.130165 211.251,315.807335 211.251,315.4 L211.251,315.179 Z M207.338,312.41 C207.719335,312.045998 208.163497,311.773001 208.6705,311.591 C209.177503,311.408999 209.695331,311.318 210.224,311.318 C210.770003,311.318 211.231498,311.385166 211.6085,311.5195 C211.985502,311.653834 212.290999,311.861832 212.525,312.1435 C212.759001,312.425168 212.930166,312.780498 213.0385,313.2095 C213.146834,313.638502 213.201,314.147664 213.201,314.737 L213.201,318 L211.251,318 L211.251,317.311 L211.212,317.311 C211.047333,317.579668 210.798168,317.787666 210.4645,317.935 C210.130832,318.082334 209.769002,318.156 209.379,318.156 C209.118999,318.156 208.850335,318.121334 208.573,318.052 C208.295665,317.982666 208.042168,317.870001 207.8125,317.714 C207.582832,317.557999 207.394334,317.350001 207.247,317.09 C207.099666,316.829999 207.026,316.509335 207.026,316.128 C207.026,315.659998 207.153832,315.283001 207.4095,314.997 C207.665168,314.710999 207.994498,314.490001 208.3975,314.334 C208.800502,314.177999 209.248998,314.074 209.743,314.022 C210.237002,313.97 210.717998,313.944 211.186,313.944 L211.186,313.84 C211.186,313.519332 211.073334,313.283167 210.848,313.1315 C210.622666,312.979833 210.345335,312.904 210.016,312.904 C209.712665,312.904 209.420168,312.968999 209.1385,313.099 C208.856832,313.229001 208.616334,313.384999 208.417,313.567 L207.338,312.41 Z M218.44,318.975 C218.309999,319.313002 218.164834,319.614165 218.0045,319.8785 C217.844166,320.142835 217.653501,320.368166 217.4325,320.5545 C217.211499,320.740834 216.951501,320.881666 216.6525,320.977 C216.353499,321.072334 216.000335,321.12 215.593,321.12 C215.393666,321.12 215.187834,321.107 214.9755,321.081 C214.763166,321.055 214.579001,321.020334 214.423,320.977 L214.657,319.183 C214.761001,319.217667 214.875833,319.245833 215.0015,319.2675 C215.127167,319.289167 215.241999,319.3 215.346,319.3 C215.675335,319.3 215.913666,319.224167 216.061,319.0725 C216.208334,318.920833 216.333999,318.706335 216.438,318.429 L216.646,317.896 L213.942,311.526 L216.308,311.526 L217.751,315.686 L217.79,315.686 L219.077,311.526 L221.339,311.526 L218.44,318.975 Z" id="Speedway" fill="#111111" mask="url(#mask-2)"></path>
            <path d="M402.125,457.322 C402.125,457.824669 402.025334,458.247165 401.826,458.5895 C401.626666,458.931835 401.362335,459.206999 401.033,459.415 C400.703665,459.623001 400.328835,459.7725 399.9085,459.8635 C399.488165,459.9545 399.057002,460 398.615,460 L394.949,460 L394.949,450.796 L398.615,450.796 C398.970335,450.796 399.334331,450.832833 399.707,450.9065 C400.079669,450.980167 400.417665,451.105832 400.721,451.2835 C401.024335,451.461168 401.271332,451.701665 401.462,452.005 C401.652668,452.308335 401.748,452.693998 401.748,453.162 C401.748,453.673336 401.609335,454.095832 401.332,454.4295 C401.054665,454.763168 400.690669,455.003666 400.24,455.151 L400.24,455.177 C400.500001,455.220334 400.744832,455.300499 400.9745,455.4175 C401.204168,455.534501 401.403499,455.683999 401.5725,455.866 C401.741501,456.048001 401.875833,456.260332 401.9755,456.503 C402.075167,456.745668 402.125,457.018665 402.125,457.322 Z M399.603,453.461 C399.603,453.148998 399.483835,452.921501 399.2455,452.7785 C399.007165,452.635499 398.654002,452.564 398.186,452.564 L397.094,452.564 L397.094,454.462 L398.29,454.462 C398.706002,454.462 399.028832,454.377501 399.2585,454.2085 C399.488168,454.039499 399.603,453.790335 399.603,453.461 Z M399.902,457.114 C399.902,456.732665 399.759001,456.468334 399.473,456.321 C399.186999,456.173666 398.805669,456.1 398.329,456.1 L397.094,456.1 L397.094,458.206 L398.342,458.206 C398.515334,458.206 398.695166,458.190833 398.8815,458.1605 C399.067834,458.130167 399.236833,458.076 399.3885,457.998 C399.540167,457.92 399.663666,457.809501 399.759,457.6665 C399.854334,457.523499 399.902,457.339334 399.902,457.114 Z M407.936,456.022 C407.936,455.683998 407.829834,455.393668 407.6175,455.151 C407.405166,454.908332 407.086669,454.787 406.662,454.787 C406.453999,454.787 406.263334,454.8195 406.09,454.8845 C405.916666,454.9495 405.765001,455.038333 405.635,455.151 C405.504999,455.263667 405.401,455.395833 405.323,455.5475 C405.245,455.699167 405.201667,455.857333 405.193,456.022 L407.936,456.022 Z M409.899,456.841 L409.899,457.101 C409.899,457.187667 409.894667,457.27 409.886,457.348 L405.193,457.348 C405.210333,457.530001 405.2645,457.694666 405.3555,457.842 C405.4465,457.989334 405.563499,458.117166 405.7065,458.2255 C405.849501,458.333834 406.009832,458.418333 406.1875,458.479 C406.365168,458.539667 406.549332,458.57 406.74,458.57 C407.078002,458.57 407.363999,458.507167 407.598,458.3815 C407.832001,458.255833 408.022666,458.093334 408.17,457.894 L409.652,458.83 C409.348665,459.272002 408.947836,459.612165 408.4495,459.8505 C407.951164,460.088835 407.37267,460.208 406.714,460.208 C406.228664,460.208 405.769336,460.132167 405.336,459.9805 C404.902665,459.828833 404.523502,459.607835 404.1985,459.3175 C403.873498,459.027165 403.617834,458.669669 403.4315,458.245 C403.245166,457.820331 403.152,457.335003 403.152,456.789 C403.152,456.260331 403.242999,455.781502 403.425,455.3525 C403.607001,454.923498 403.853998,454.559501 404.166,454.2605 C404.478002,453.961499 404.846331,453.729667 405.271,453.565 C405.695669,453.400333 406.154998,453.318 406.649,453.318 C407.125669,453.318 407.563331,453.398166 407.962,453.5585 C408.360669,453.718834 408.702999,453.950665 408.989,454.254 C409.275001,454.557335 409.498166,454.925664 409.6585,455.359 C409.818834,455.792335 409.899,456.286331 409.899,456.841 Z M414.969,457.179 L414.696,457.179 C414.461999,457.179 414.225835,457.189833 413.9875,457.2115 C413.749165,457.233167 413.536834,457.274333 413.3505,457.335 C413.164166,457.395667 413.010334,457.484499 412.889,457.6015 C412.767666,457.718501 412.707,457.872332 412.707,458.063 C412.707,458.184334 412.735166,458.288333 412.7915,458.375 C412.847834,458.461667 412.919333,458.531 413.006,458.583 C413.092667,458.635 413.192333,458.671833 413.305,458.6935 C413.417667,458.715167 413.525999,458.726 413.63,458.726 C414.063335,458.726 414.394832,458.606835 414.6245,458.3685 C414.854168,458.130165 414.969,457.807335 414.969,457.4 L414.969,457.179 Z M411.056,454.41 C411.437335,454.045998 411.881497,453.773001 412.3885,453.591 C412.895503,453.408999 413.413331,453.318 413.942,453.318 C414.488003,453.318 414.949498,453.385166 415.3265,453.5195 C415.703502,453.653834 416.008999,453.861832 416.243,454.1435 C416.477001,454.425168 416.648166,454.780498 416.7565,455.2095 C416.864834,455.638502 416.919,456.147664 416.919,456.737 L416.919,460 L414.969,460 L414.969,459.311 L414.93,459.311 C414.765333,459.579668 414.516168,459.787666 414.1825,459.935 C413.848832,460.082334 413.487002,460.156 413.097,460.156 C412.836999,460.156 412.568335,460.121334 412.291,460.052 C412.013665,459.982666 411.760168,459.870001 411.5305,459.714 C411.300832,459.557999 411.112334,459.350001 410.965,459.09 C410.817666,458.829999 410.744,458.509335 410.744,458.128 C410.744,457.659998 410.871832,457.283001 411.1275,456.997 C411.383168,456.710999 411.712498,456.490001 412.1155,456.334 C412.518502,456.177999 412.966998,456.074 413.461,456.022 C413.955002,455.97 414.435998,455.944 414.904,455.944 L414.904,455.84 C414.904,455.519332 414.791334,455.283167 414.566,455.1315 C414.340666,454.979833 414.063335,454.904 413.734,454.904 C413.430665,454.904 413.138168,454.968999 412.8565,455.099 C412.574832,455.229001 412.334334,455.384999 412.135,455.567 L411.056,454.41 Z M422.964,455.619 C422.842666,455.462999 422.678001,455.337334 422.47,455.242 C422.261999,455.146666 422.049668,455.099 421.833,455.099 C421.607666,455.099 421.404001,455.1445 421.222,455.2355 C421.039999,455.3265 420.884001,455.447833 420.754,455.5995 C420.623999,455.751167 420.522167,455.926666 420.4485,456.126 C420.374833,456.325334 420.338,456.537666 420.338,456.763 C420.338,456.988334 420.372666,457.200666 420.442,457.4 C420.511334,457.599334 420.613166,457.774833 420.7475,457.9265 C420.881834,458.078167 421.042166,458.197333 421.2285,458.284 C421.414834,458.370667 421.624999,458.414 421.859,458.414 C422.075668,458.414 422.290166,458.372834 422.5025,458.2905 C422.714834,458.208166 422.885999,458.089001 423.016,457.933 L424.199,459.376 C423.930332,459.636001 423.583669,459.839666 423.159,459.987 C422.734331,460.134334 422.283669,460.208 421.807,460.208 C421.295664,460.208 420.819002,460.130001 420.377,459.974 C419.934998,459.817999 419.551502,459.590501 419.2265,459.2915 C418.901498,458.992499 418.645834,458.630669 418.4595,458.206 C418.273166,457.781331 418.18,457.300336 418.18,456.763 C418.18,456.234331 418.273166,455.757669 418.4595,455.333 C418.645834,454.908331 418.901498,454.546501 419.2265,454.2475 C419.551502,453.948499 419.934998,453.718834 420.377,453.5585 C420.819002,453.398166 421.291331,453.318 421.794,453.318 C422.028001,453.318 422.259832,453.339666 422.4895,453.383 C422.719168,453.426334 422.940166,453.484833 423.1525,453.5585 C423.364834,453.632167 423.559832,453.723166 423.7375,453.8315 C423.915168,453.939834 424.068999,454.058999 424.199,454.189 L422.964,455.619 Z M429.308,460 L429.308,456.49 C429.308,456.307999 429.295,456.134667 429.269,455.97 C429.243,455.805333 429.193167,455.660167 429.1195,455.5345 C429.045833,455.408833 428.948334,455.309167 428.827,455.2355 C428.705666,455.161833 428.549668,455.125 428.359,455.125 C427.986331,455.125 427.700334,455.257165 427.501,455.5215 C427.301666,455.785835 427.202,456.112998 427.202,456.503 L427.202,460 L425.07,460 L425.07,450.172 L427.202,450.172 L427.202,454.345 L427.228,454.345 C427.375334,454.084999 427.609332,453.853168 427.93,453.6495 C428.250668,453.445832 428.636331,453.344 429.087,453.344 C429.529002,453.344 429.899499,453.421999 430.1985,453.578 C430.497501,453.734001 430.740166,453.935499 430.9265,454.1825 C431.112834,454.429501 431.247166,454.713332 431.3295,455.034 C431.411834,455.354668 431.453,455.675332 431.453,455.996 L431.453,460 L429.308,460 Z M444.609,459.441 C444.158331,459.675001 443.631836,459.865666 443.0295,460.013 C442.427164,460.160334 441.77067,460.234 441.06,460.234 C440.32333,460.234 439.64517,460.117001 439.0255,459.883 C438.40583,459.648999 437.872836,459.319669 437.4265,458.895 C436.980164,458.470331 436.631335,457.96117 436.38,457.3675 C436.128665,456.77383 436.003,456.113004 436.003,455.385 C436.003,454.64833 436.130832,453.981003 436.3865,453.383 C436.642168,452.784997 436.995331,452.275835 437.446,451.8555 C437.896669,451.435165 438.42533,451.112334 439.032,450.887 C439.63867,450.661666 440.292996,450.549 440.995,450.549 C441.723004,450.549 442.398997,450.659499 443.023,450.8805 C443.647003,451.101501 444.153998,451.398331 444.544,451.771 L443.14,453.37 C442.923332,453.118665 442.637335,452.912834 442.282,452.7525 C441.926665,452.592166 441.523669,452.512 441.073,452.512 C440.682998,452.512 440.323335,452.583499 439.994,452.7265 C439.664665,452.869501 439.378668,453.068832 439.136,453.3245 C438.893332,453.580168 438.704834,453.883498 438.5705,454.2345 C438.436166,454.585502 438.369,454.968998 438.369,455.385 C438.369,455.809669 438.429666,456.199665 438.551,456.555 C438.672334,456.910335 438.852165,457.215832 439.0905,457.4715 C439.328835,457.727168 439.623498,457.926499 439.9745,458.0695 C440.325502,458.212501 440.726331,458.284 441.177,458.284 C441.437001,458.284 441.683999,458.2645 441.918,458.2255 C442.152001,458.1865 442.368666,458.123667 442.568,458.037 L442.568,456.36 L440.813,456.36 L440.813,454.566 L444.609,454.566 L444.609,459.441 Z M450.511,455.268 C450.415666,455.242 450.3225,455.224667 450.2315,455.216 C450.1405,455.207333 450.051667,455.203 449.965,455.203 C449.678999,455.203 449.438501,455.254999 449.2435,455.359 C449.048499,455.463001 448.892501,455.588666 448.7755,455.736 C448.658499,455.883334 448.574,456.043666 448.522,456.217 C448.47,456.390334 448.444,456.541999 448.444,456.672 L448.444,460 L446.312,460 L446.312,453.526 L448.366,453.526 L448.366,454.462 L448.392,454.462 C448.556667,454.132665 448.790665,453.864001 449.094,453.656 C449.397335,453.447999 449.748331,453.344 450.147,453.344 C450.233667,453.344 450.318166,453.348333 450.4005,453.357 C450.482834,453.365667 450.55,453.378667 450.602,453.396 L450.511,455.268 Z M458.09,456.737 C458.09,457.265669 457.994668,457.744498 457.804,458.1735 C457.613332,458.602502 457.353335,458.966499 457.024,459.2655 C456.694665,459.564501 456.313335,459.796333 455.88,459.961 C455.446664,460.125667 454.983002,460.208 454.489,460.208 C454.003664,460.208 453.542169,460.125667 453.1045,459.961 C452.666831,459.796333 452.285502,459.564501 451.9605,459.2655 C451.635498,458.966499 451.377668,458.602502 451.187,458.1735 C450.996332,457.744498 450.901,457.265669 450.901,456.737 C450.901,456.208331 450.996332,455.731669 451.187,455.307 C451.377668,454.882331 451.635498,454.522668 451.9605,454.228 C452.285502,453.933332 452.666831,453.708001 453.1045,453.552 C453.542169,453.395999 454.003664,453.318 454.489,453.318 C454.983002,453.318 455.446664,453.395999 455.88,453.552 C456.313335,453.708001 456.694665,453.933332 457.024,454.228 C457.353335,454.522668 457.613332,454.882331 457.804,455.307 C457.994668,455.731669 458.09,456.208331 458.09,456.737 Z M456.036,456.737 C456.036,456.528999 456.001334,456.325334 455.932,456.126 C455.862666,455.926666 455.763001,455.751167 455.633,455.5995 C455.502999,455.447833 455.342668,455.324334 455.152,455.229 C454.961332,455.133666 454.740335,455.086 454.489,455.086 C454.237665,455.086 454.016668,455.133666 453.826,455.229 C453.635332,455.324334 453.477167,455.447833 453.3515,455.5995 C453.225833,455.751167 453.1305,455.926666 453.0655,456.126 C453.0005,456.325334 452.968,456.528999 452.968,456.737 C452.968,456.945001 453.0005,457.148666 453.0655,457.348 C453.1305,457.547334 453.227999,457.727166 453.358,457.8875 C453.488001,458.047834 453.648332,458.175666 453.839,458.271 C454.029668,458.366334 454.250665,458.414 454.502,458.414 C454.753335,458.414 454.974332,458.366334 455.165,458.271 C455.355668,458.175666 455.515999,458.047834 455.646,457.8875 C455.776001,457.727166 455.8735,457.547334 455.9385,457.348 C456.0035,457.148666 456.036,456.945001 456.036,456.737 Z M463.446,460 L461.145,460 L458.597,453.526 L460.95,453.526 L462.315,457.725 L462.354,457.725 L463.719,453.526 L465.994,453.526 L463.446,460 Z M471.272,456.022 C471.272,455.683998 471.165834,455.393668 470.9535,455.151 C470.741166,454.908332 470.422669,454.787 469.998,454.787 C469.789999,454.787 469.599334,454.8195 469.426,454.8845 C469.252666,454.9495 469.101001,455.038333 468.971,455.151 C468.840999,455.263667 468.737,455.395833 468.659,455.5475 C468.581,455.699167 468.537667,455.857333 468.529,456.022 L471.272,456.022 Z M473.235,456.841 L473.235,457.101 C473.235,457.187667 473.230667,457.27 473.222,457.348 L468.529,457.348 C468.546333,457.530001 468.6005,457.694666 468.6915,457.842 C468.7825,457.989334 468.899499,458.117166 469.0425,458.2255 C469.185501,458.333834 469.345832,458.418333 469.5235,458.479 C469.701168,458.539667 469.885332,458.57 470.076,458.57 C470.414002,458.57 470.699999,458.507167 470.934,458.3815 C471.168001,458.255833 471.358666,458.093334 471.506,457.894 L472.988,458.83 C472.684665,459.272002 472.283836,459.612165 471.7855,459.8505 C471.287164,460.088835 470.70867,460.208 470.05,460.208 C469.564664,460.208 469.105336,460.132167 468.672,459.9805 C468.238665,459.828833 467.859502,459.607835 467.5345,459.3175 C467.209498,459.027165 466.953834,458.669669 466.7675,458.245 C466.581166,457.820331 466.488,457.335003 466.488,456.789 C466.488,456.260331 466.578999,455.781502 466.761,455.3525 C466.943001,454.923498 467.189998,454.559501 467.502,454.2605 C467.814002,453.961499 468.182331,453.729667 468.607,453.565 C469.031669,453.400333 469.490998,453.318 469.985,453.318 C470.461669,453.318 470.899331,453.398166 471.298,453.5585 C471.696669,453.718834 472.038999,453.950665 472.325,454.254 C472.611001,454.557335 472.834166,454.925664 472.9945,455.359 C473.154834,455.792335 473.235,456.286331 473.235,456.841 Z" id="Beach-Grove" fill="#111111" mask="url(#mask-2)"></path>
            <polyline id="Path-4" stroke="#B4B4B4" stroke-width="4" mask="url(#mask-2)" points="405 492.263672 360.095703 501.306641 342.220703 506.716797 310.207031 499.490234 255.638672 515.466797 196 518.503906 182.523438 515.466797 156.363281 494.759766 156.363281 476.521484 135.725586 478.947266 102.197266 506.716797 46.1953125 536.173828 0.45703125 556.234375"></polyline>
            <polyline id="Path-5" stroke="#B4B4B4" stroke-width="4" mask="url(#mask-2)" points="418.300781 563 409.173828 546.035156 399.222656 494.759766"></polyline>
            <path d="M334.689453,563 L337.649414,506.976562" id="Path-6" stroke="#B4B4B4" stroke-width="4" mask="url(#mask-2)"></path>
            <polyline id="Path-7" stroke="#B4B4B4" stroke-width="4" mask="url(#mask-2)" points="137.355469 168.407552 93.3398438 119.632812 36 39.0625 11.2558594 0.53515625"></polyline>
            <polyline id="Path-8" stroke="#B4B4B4" stroke-width="4" mask="url(#mask-2)" points="632 556.234375 587.316406 518.414062 538.871094 447 511.886719 433.320312 498 433.320312"></polyline>
            <polyline id="Path-9" stroke="#B4B4B4" stroke-width="4" mask="url(#mask-2)" points="626.945312 288 525 300.371094 511.691406 300.371094"></polyline>
        </g>
    </g>
</svg>