<?xml version="1.0" encoding="UTF-8"?>
<svg width="478px" height="63px" viewBox="0 0 478 63" version="1.1" xmlns="http://www.w3.org/2000/svg" xmlns:xlink="http://www.w3.org/1999/xlink">
    <!-- Generator: Sketch 52.2 (67145) - http://www.bohemiancoding.com/sketch -->
    <title>Group</title>
    <desc>Created with Sketch.</desc>
    <g id="Page-1" stroke="none" stroke-width="1" fill="none" fill-rule="evenodd">
        <g id="Group-4" transform="translate(-307.000000, -118.000000)">
            <g id="Group" transform="translate(306.000000, 78.000000)">
                <path d="M140.726167,40.3117704 C144.868536,40.3117704 148.528518,40.9643255 151.706226,42.2694553 C154.883933,43.574585 157.721129,45.5322502 160.217899,48.1425097 L153.493677,56.1434825 C149.862012,52.9657753 146.145285,51.3769455 142.343385,51.3769455 C140.300573,51.3769455 138.740116,51.8450829 137.661965,52.7813716 C136.583814,53.7176603 136.044747,55.0085845 136.044747,56.6541829 C136.044747,57.7890783 136.328467,58.739539 136.895914,59.5055934 C137.463362,60.2716478 138.428009,61.0093188 139.789883,61.7186284 C141.151758,62.427938 143.166167,63.2932828 145.833171,64.3146887 C149.521581,65.7900528 152.486451,67.3221386 154.72787,68.9109922 C156.969288,70.4998458 158.671606,72.471697 159.834874,74.8266051 C160.998141,77.1815131 161.579767,80.089639 161.579767,83.55107 C161.579767,87.296225 160.68605,90.6015583 158.898589,93.4671693 C157.111129,96.3327802 154.543467,98.5599791 151.195525,100.148833 C147.847584,101.737686 143.875509,102.532101 139.279183,102.532101 C130.597233,102.532101 123.504243,99.6665332 118,93.9353113 L125.405156,85.7641051 C127.561457,87.5799377 129.675168,88.9701638 131.746352,89.9348249 C133.817536,90.899486 136.016363,91.3818093 138.342899,91.3818093 C140.726179,91.3818093 142.527799,90.7859982 143.747811,89.594358 C144.967824,88.4027178 145.577821,86.813888 145.577821,84.827821 C145.577821,82.841754 144.953638,81.2529242 143.705253,80.061284 C142.456868,78.8696438 140.158739,77.6496496 136.810798,76.4012646 C130.739107,74.074729 126.454941,71.4928806 123.958171,68.655642 C121.461401,65.8184035 120.213035,62.2435365 120.213035,57.9309339 C120.213035,54.412758 121.106752,51.3202144 122.894212,48.6532101 C124.681672,45.9862059 127.135847,43.9292388 130.256809,42.4822471 C133.377772,41.0352554 136.867523,40.3117704 140.726167,40.3117704 Z M206.30388,41.8438716 L204.686662,53.5048638 L192.514969,53.5048638 L192.514969,101 L177.108841,101 L177.108841,53.5048638 L164.085981,53.5048638 L164.085981,41.8438716 L206.30388,41.8438716 Z M236.387915,101 L234.089764,88.7431907 L220.64132,88.7431907 L218.343168,101 L202.68169,101 L218.343168,41.8438716 L236.728382,41.8438716 L252.304744,101 L236.387915,101 Z M222.684122,77.848249 L232.046962,77.848249 L227.365542,52.9090467 L222.684122,77.848249 Z M275.834791,79.0398833 L272.515239,79.0398833 L272.515239,101 L257.10911,101 L257.10911,41.8438716 L275.579441,41.8438716 C291.297743,41.8438716 299.156776,47.972215 299.156776,60.2290856 C299.156776,67.6626507 295.950744,72.9682072 289.538585,76.1459144 L302.646562,101 L286.048799,101 L275.834791,79.0398833 Z M272.515239,68.5705253 L276.005025,68.5705253 C278.615284,68.5705253 280.50202,67.9037842 281.665287,66.5702821 C282.828555,65.23678 283.41018,63.1230689 283.41018,60.2290856 C283.41018,57.6188261 282.757625,55.6895328 281.452496,54.4411479 C280.147366,53.1927629 278.132957,52.5685798 275.409208,52.5685798 L272.515239,52.5685798 L272.515239,68.5705253 Z M344.817173,41.8438716 L343.199955,53.5048638 L331.028263,53.5048638 L331.028263,101 L315.622134,101 L315.622134,53.5048638 L302.599274,53.5048638 L302.599274,41.8438716 L344.817173,41.8438716 Z M385.455683,41.8438716 L383.838465,52.7388132 L366.134185,52.7388132 L366.134185,65.6765564 L381.710547,65.6765564 L381.710547,76.3161479 L366.134185,76.3161479 L366.134185,90.0199416 L385.0301,90.0199416 L385.0301,101 L350.728057,101 L350.728057,41.8438716 L385.455683,41.8438716 Z M410.092248,41.8438716 C415.653236,41.8438716 420.476469,42.6241005 424.562092,44.1845817 C428.647716,45.7450629 431.967235,48.6815608 434.52075,52.9941634 C437.074265,57.3067661 438.351003,63.3783655 438.351003,71.209144 C438.351003,82.2176296 435.882642,89.9348028 430.945847,94.3608949 C426.009052,98.7869871 419.370014,101 411.028532,101 L393.324252,101 L393.324252,41.8438716 L410.092248,41.8438716 Z M408.73038,52.82393 L408.73038,90.0199416 L411.964816,90.0199416 C414.404841,90.0199416 416.376693,89.4666884 417.880429,88.3601654 C419.384165,87.2536423 420.53323,85.324349 421.327657,82.5722276 C422.122083,79.8201062 422.519291,76.0324495 422.519291,71.209144 C422.519291,66.3858384 422.107897,62.6265537 421.285098,59.931177 C420.462299,57.2358004 419.299049,55.377437 417.795312,54.3560311 C416.291576,53.3346252 414.376469,52.82393 412.049933,52.82393 L408.73038,52.82393 Z M460.859649,40.3117704 C464.661549,40.3117704 467.910138,40.9785115 470.605515,42.3120136 C473.300892,43.6455157 475.315301,45.4045773 476.648803,47.589251 C477.982305,49.7739247 478.649046,52.1713553 478.649046,54.7816148 C478.649046,57.0514056 478.294397,58.9806989 477.585087,60.5695525 C476.875777,62.1584061 476.010433,63.4777023 474.989027,64.5274805 C473.967621,65.5772588 472.634139,66.7263232 470.98854,67.9747082 C468.888984,69.6203065 467.356898,71.0530905 466.392237,72.2731031 C465.427576,73.4931157 464.945252,75.0961314 464.945252,77.0821984 L464.945252,78.7845331 L451.752159,78.7845331 L451.752159,76.5714981 C451.752159,73.9044938 452.106809,71.6631089 452.816118,69.8472763 C453.525428,68.0314436 454.376587,66.5844736 455.36962,65.506323 C456.362654,64.4281723 457.625206,63.3216659 459.157315,62.1867704 C460.632679,61.051875 461.710813,60.0588564 462.391751,59.2076848 C463.072688,58.3565133 463.413151,57.2500068 463.413151,55.8881323 C463.413151,54.5830026 463.03013,53.5899839 462.264075,52.9090467 C461.498021,52.2281094 460.434072,51.8876459 459.072198,51.8876459 C456.291704,51.8876459 453.511252,53.4481037 450.730758,56.5690661 L441.793501,49.5894942 C446.673552,43.4043141 453.028871,40.3117704 460.859649,40.3117704 Z M458.391264,86.3599222 C460.661055,86.3599222 462.561976,87.168523 464.094085,88.785749 C465.626194,90.402975 466.392237,92.2897104 466.392237,94.4460117 C466.392237,96.7158025 465.64038,98.6309098 464.136643,100.191391 C462.632907,101.751872 460.7178,102.532101 458.391264,102.532101 C456.121473,102.532101 454.234738,101.751872 452.731001,100.191391 C451.227265,98.6309098 450.475408,96.7158025 450.475408,94.4460117 C450.475408,92.2897104 451.227265,90.402975 452.731001,88.785749 C454.234738,87.168523 456.121473,86.3599222 458.391264,86.3599222 Z" id="STARTED?" fill="#AECA20"></path>
                <path d="M18.8307404,74.8701362 L18.2106042,79.3205253 L12.7752929,79.3205253 L12.7752929,100.149805 L6.93871702,100.149805 L6.93871702,79.3205253 L1.17509834,79.3205253 L1.17509834,74.8701362 L18.8307404,74.8701362 Z M30.0458829,74.25 C33.3776116,74.25 35.9432474,75.3747456 37.7428673,77.6242704 C39.5424872,79.8737953 40.4422836,83.1629161 40.4422836,87.4917315 C40.4422836,91.7719086 39.5364075,95.0549497 37.724628,97.3409533 C35.9128485,99.626957 33.3532924,100.769942 30.0458829,100.769942 C26.7384733,100.769942 24.1789172,99.6391164 22.3671377,97.3774319 C20.5553582,95.1157474 19.6494821,91.8205469 19.6494821,87.4917315 C19.6494821,83.2358737 20.5553582,79.964992 22.3671377,77.6789883 C24.1789172,75.3929847 26.7384733,74.25 30.0458829,74.25 Z M30.0458829,78.5179961 C28.5624124,78.5179961 27.4741451,79.2110826 26.7810482,80.5972763 C26.0879514,81.98347 25.7414082,84.2815987 25.7414082,87.4917315 C25.7414082,90.7505027 26.0940311,93.0668706 26.7992875,94.4409047 C27.504544,95.8149388 28.5867316,96.5019455 30.0458829,96.5019455 C31.5293533,96.5019455 32.6176206,95.8149388 33.3107175,94.4409047 C34.0038143,93.0668706 34.3503576,90.7505027 34.3503576,87.4917315 C34.3503576,84.2815987 34.0038143,81.98347 33.3107175,80.5972763 C32.6176206,79.2110826 31.5293533,78.5179961 30.0458829,78.5179961 Z M63.4197476,74.25 C66.3866885,74.25 68.9644838,75.28355 71.1532107,77.3506809 L68.3078799,80.3419261 C67.4810275,79.685308 66.7210643,79.211091 66.0279675,78.9192607 C65.3348706,78.6274304 64.5505886,78.4815175 63.6750978,78.4815175 C61.9727547,78.4815175 60.6595382,79.1806837 59.7354091,80.579037 C58.81128,81.9773903 58.3492223,84.2815987 58.3492223,87.4917315 C58.3492223,89.8020544 58.5072947,91.607727 58.8234441,92.9088035 C59.1395936,94.20988 59.6138106,95.1279156 60.2461095,95.6629377 C60.8784084,96.1979599 61.7174078,96.4654669 62.7631328,96.4654669 C63.8574963,96.4654669 64.8302492,96.1979599 65.6814208,95.6629377 L65.6814208,89.7534047 L62.8725686,89.7534047 L62.3253896,85.631323 L71.2261678,85.631323 L71.2261678,98.1434825 C70.0345276,98.9703349 68.7091518,99.6147837 67.2500005,100.076848 C65.7908493,100.538913 64.3317199,100.769942 62.8725686,100.769942 C59.297648,100.769942 56.6408166,99.6695149 54.9019947,97.4686284 C53.1631728,95.2677419 52.2937749,91.9421429 52.2937749,87.4917315 C52.2937749,84.6220674 52.7801513,82.1901851 53.7529188,80.1960117 C54.7256863,78.2018383 56.0510622,76.7123104 57.7290861,75.7273833 C59.4071101,74.7424562 61.3039783,74.25 63.4197476,74.25 Z M90.0653376,74.8701362 L89.4452014,79.0286965 L81.6023026,79.0286965 L81.6023026,85.266537 L88.4602792,85.266537 L88.4602792,89.3521401 L81.6023026,89.3521401 L81.6023026,95.9182879 L89.9923804,95.9182879 L89.9923804,100.149805 L75.7657267,100.149805 L75.7657267,74.8701362 L90.0653376,74.8701362 Z M109.998865,74.8701362 L109.378729,79.3205253 L103.943418,79.3205253 L103.943418,100.149805 L98.1068419,100.149805 L98.1068419,79.3205253 L92.3432233,79.3205253 L92.3432233,74.8701362 L109.998865,74.8701362 Z" id="TO-GET" fill="#FFFFFF"></path>
                <path d="M48.3525729,57.7120623 L47.0879815,57.7120623 L47.0879815,64.1809339 L43.1969309,64.1809339 L43.1969309,47.327821 L48.1337013,47.327821 C50.338641,47.327821 51.9842147,47.7534004 53.0704717,48.604572 C54.1567288,49.4557436 54.6998492,50.7324818 54.6998492,52.4348249 C54.6998492,54.5911262 53.7514151,56.1069995 51.8545184,56.9824903 L55.6726118,64.1809339 L51.4167752,64.1809339 L48.3525729,57.7120623 Z M47.0879815,55.0126459 L48.2796157,55.0126459 C49.1226809,55.0126459 49.7387577,54.8059359 50.1278647,54.3925097 C50.5169717,53.9790835 50.7115223,53.3265285 50.7115223,52.4348249 C50.7115223,51.6241853 50.5007592,51.0283741 50.0792266,50.6473735 C49.657694,50.2663729 48.9929795,50.0758755 48.0850632,50.0758755 L47.0879815,50.0758755 L47.0879815,55.0126459 Z M67.0890622,47.327821 L66.6756381,50.1001946 L61.4470389,50.1001946 L61.4470389,54.2587549 L66.0190233,54.2587549 L66.0190233,56.9824903 L61.4470389,56.9824903 L61.4470389,61.3599222 L67.0404241,61.3599222 L67.0404241,64.1809339 L57.5559883,64.1809339 L57.5559883,47.327821 L67.0890622,47.327821 Z M77.897536,64.1809339 L77.1436449,60.5087549 L72.8634893,60.5087549 L72.1095982,64.1809339 L68.1699095,64.1809339 L72.7175749,47.327821 L77.3868356,47.327821 L81.9101819,64.1809339 L77.897536,64.1809339 Z M73.4471469,57.7120623 L76.5599873,57.7120623 L75.0035671,50.1731518 L73.4471469,57.7120623 Z M88.0980331,47.327821 C89.6544611,47.327821 91.012262,47.5466904 92.1714766,47.9844358 C93.3306913,48.4221812 94.2669659,49.2571274 94.9803288,50.4892996 C95.6936916,51.7214718 96.0503677,53.4481082 96.0503677,55.6692607 C96.0503677,58.8145423 95.3532281,61.0194489 93.958928,62.2840467 C92.5646279,63.5486445 90.7163974,64.1809339 88.4141809,64.1809339 L83.671963,64.1809339 L83.671963,47.327821 L88.0980331,47.327821 Z M87.5630136,50.1488327 L87.5630136,61.3599222 L88.6573716,61.3599222 C89.40316,61.3599222 90.0192368,61.1977967 90.5056206,60.8735409 C90.9920044,60.549285 91.3689461,59.9696864 91.6364572,59.1347276 C91.9039682,58.2997688 92.0377218,57.1446248 92.0377218,55.6692607 C92.0377218,54.1938966 91.8999151,53.050912 91.6242976,52.2402724 C91.3486802,51.4296328 90.9636322,50.8784061 90.469142,50.5865759 C89.9746519,50.2947456 89.3626281,50.1488327 88.6330525,50.1488327 L87.5630136,50.1488327 Z M109.996001,47.327821 L105.132188,57.8579767 L105.132188,64.1809339 L101.241137,64.1809339 L101.241137,57.8822957 L96.3773239,47.327821 L100.535884,47.327821 L103.235301,54.8180934 L105.983355,47.327821 L109.996001,47.327821 Z" id="READY" fill="#FFFFFF"></path>
            </g>
        </g>
    </g>
</svg>