<?xml version="1.0" encoding="UTF-8"?>
<svg width="508px" height="92px" viewBox="0 0 508 92" version="1.1" xmlns="http://www.w3.org/2000/svg" xmlns:xlink="http://www.w3.org/1999/xlink">
    <!-- Generator: Sketch 52.2 (67145) - http://www.bohemiancoding.com/sketch -->
    <title>triangulate</title>
    <desc>Created with Sketch.</desc>
    <defs>
        <polygon id="path-1" points="57.2940011 0 114.634146 91.4634146 0 91.4634146 45.9640309 17.9415464 52.5745968 28.6152012 19.7468827 82.2821834 96.3965688 82.2821834 51.372421 9.26239191"></polygon>
        <linearGradient x1="5.26431075%" y1="0%" x2="109.437062%" y2="104.734959%" id="linearGradient-3">
            <stop stop-color="#2EBF91" offset="0%"></stop>
            <stop stop-color="#8360C3" offset="100%"></stop>
        </linearGradient>
    </defs>
    <g id="Page-1" stroke="none" stroke-width="1" fill="none" fill-rule="evenodd">
        <g id="Branding-Copy-9" transform="translate(-600.000000, -257.000000)">
            <g id="triangulate" transform="translate(600.000000, 251.000000)">
                <path d="M159.179688,73.8198361 C160.227711,73.8198361 161.239991,73.7424265 162.216559,73.5876048 C163.193126,73.4327831 163.967223,73.2720092 164.538872,73.1052782 L164.538872,77.642721 C163.895767,77.9523644 162.948987,78.2084117 161.698504,78.4108708 C160.448022,78.6133299 159.322604,78.7145579 158.322218,78.7145579 C150.747866,78.7145579 146.960747,74.7249827 146.960747,66.7457127 L146.960747,43.4511242 L141.351467,43.4511242 L141.351467,40.5928925 L146.960747,38.1276677 L149.4617,29.7673399 L152.891578,29.7673399 L152.891578,38.8422256 L164.253049,38.8422256 L164.253049,43.4511242 L152.891578,43.4511242 L152.891578,66.4956174 C152.891578,68.8536703 153.451309,70.6638656 154.570789,71.9262576 C155.690269,73.1886496 157.226553,73.8198361 159.179688,73.8198361 Z M190.227229,38.1276677 C191.965996,38.1276677 193.526098,38.2705778 194.907584,38.5564024 L194.085842,44.0584985 C192.466169,43.7012177 191.037068,43.52258 189.798495,43.52258 C186.630605,43.52258 183.921267,44.8087714 181.670398,47.3811928 C179.41953,49.9536142 178.294112,53.1571836 178.294112,56.991997 L178.294112,78 L172.363281,78 L172.363281,38.8422256 L177.258003,38.8422256 L177.936833,46.0949886 L178.222656,46.0949886 C179.675598,43.5463859 181.426247,41.5813712 183.474657,40.1998857 C185.523067,38.8184001 187.773902,38.1276677 190.227229,38.1276677 Z M208.162633,78 L202.231803,78 L202.231803,38.8422256 L208.162633,38.8422256 L208.162633,78 Z M201.731612,28.2310404 C201.731612,26.8733735 202.065069,25.878957 202.731993,25.2477611 C203.398917,24.6165651 204.23256,24.3009718 205.232946,24.3009718 C206.185695,24.3009718 207.007428,24.6225197 207.698171,25.265625 C208.388914,25.9087303 208.73428,26.8971923 208.73428,28.2310404 C208.73428,29.5648885 208.388914,30.559305 207.698171,31.2143197 C207.007428,31.8693344 206.185695,32.1968369 205.232946,32.1968369 C204.23256,32.1968369 203.398917,31.8693344 202.731993,31.2143197 C202.065069,30.559305 201.731612,29.5648885 201.731612,28.2310404 Z M244.819455,78 L243.640434,72.4264482 L243.354611,72.4264482 C241.401477,74.879776 239.454326,76.5411066 237.5131,77.4104897 C235.571875,78.2798729 233.148357,78.7145579 230.242473,78.7145579 C226.360023,78.7145579 223.317227,77.7141868 221.113996,75.7134146 C218.910765,73.7126424 217.809165,70.8663485 217.809165,67.1744474 C217.809165,59.2666335 224.13294,55.1222389 236.780678,54.7411395 L243.426067,54.5267721 L243.426067,52.0972752 C243.426067,49.0246607 242.765108,46.755962 241.443169,45.2911109 C240.12123,43.8262598 238.007351,43.0938453 235.101467,43.0938453 C231.838303,43.0938453 228.146457,44.0942164 224.025819,46.0949886 L222.203697,41.5575457 C224.133013,40.5095222 226.246892,39.6877888 228.545398,39.0923209 C230.843904,38.496853 233.148331,38.1991235 235.458746,38.1991235 C240.127215,38.1991235 243.586831,39.2352221 245.8377,41.3074505 C248.088569,43.3796788 249.213986,46.7023399 249.213986,51.2755335 L249.213986,78 L244.819455,78 Z M231.421494,73.8198361 C235.113395,73.8198361 238.01328,72.8075559 240.121237,70.7829649 C242.229193,68.758374 243.283155,65.9239893 243.283155,62.2797256 L243.283155,58.7426639 L237.352325,58.9927591 C232.636219,59.1594902 229.236148,59.8919047 227.15201,61.1900248 C225.067873,62.4881448 224.025819,64.5067508 224.025819,67.2459032 C224.025819,69.3895877 224.67487,71.0211453 225.97299,72.140625 C227.27111,73.2601047 229.08726,73.8198361 231.421494,73.8198361 Z M288.228849,78 L288.228849,52.6689215 C288.228849,49.4772135 287.502389,47.0953775 286.049447,45.5233422 C284.596506,43.9513069 282.321852,43.1653011 279.225419,43.1653011 C275.1286,43.1653011 272.127487,44.2728548 270.221989,46.4879954 C268.316492,48.7031361 267.363758,52.3592542 267.363758,57.4564596 L267.363758,78 L261.432927,78 L261.432927,38.8422256 L266.256193,38.8422256 L267.220846,44.2014101 L267.506669,44.2014101 C268.721424,42.272094 270.424436,40.777492 272.615758,39.7175591 C274.80708,38.6576262 277.248462,38.1276677 279.939977,38.1276677 C284.656083,38.1276677 288.205019,39.2649943 290.58689,41.5396818 C292.968762,43.8143692 294.15968,47.4526236 294.15968,52.4545541 L294.15968,78 L288.228849,78 Z M338.390816,38.8422256 L338.390816,42.5936547 L331.138053,43.4511242 C331.804977,44.2847793 332.400436,45.3744693 332.924447,46.7202268 C333.448459,48.0659842 333.710461,49.5844047 333.710461,51.2755335 C333.710461,55.1103469 332.400451,58.1710061 329.780393,60.4576029 C327.160334,62.7441997 323.563761,63.8874809 318.990568,63.8874809 C317.823451,63.8874809 316.727806,63.7922075 315.703601,63.6016578 C313.178817,64.9355059 311.916444,66.6147002 311.916444,68.6392912 C311.916444,69.7111334 312.357084,70.5030939 313.238377,71.0151963 C314.119669,71.5272987 315.632135,71.783346 317.775819,71.783346 L324.707031,71.783346 C328.946763,71.783346 332.203923,72.6765345 334.478611,74.4629383 C336.753298,76.249342 337.890625,78.8455432 337.890625,82.2516197 C337.890625,86.5866261 336.151885,89.8914235 332.674352,92.1661109 C329.19682,94.4407983 324.123509,95.578125 317.454268,95.578125 C312.333244,95.578125 308.385351,94.6253906 305.610471,92.7198933 C302.83559,90.814396 301.448171,88.1229214 301.448171,84.6453887 C301.448171,82.2635171 302.210358,80.203229 303.734756,78.4644627 C305.259154,76.7256963 307.402806,75.5466875 310.165777,74.9274009 C309.165391,74.4748453 308.325794,73.7722037 307.646961,72.819455 C306.968127,71.8667064 306.628716,70.7591527 306.628716,69.4967607 C306.628716,68.0676377 307.009809,66.8171738 307.772008,65.7453316 C308.534207,64.6734893 309.737034,63.6373907 311.380526,62.6370046 C309.355935,61.8033495 307.706514,60.3861571 306.432212,58.3853849 C305.157911,56.3846127 304.52077,54.0980502 304.52077,51.5256288 C304.52077,47.2382598 305.806961,43.9334624 308.379383,41.6111376 C310.951804,39.2888127 314.596013,38.1276677 319.312119,38.1276677 C321.360529,38.1276677 323.206451,38.3658513 324.849943,38.8422256 L338.390816,38.8422256 Z M307.164634,84.5739329 C307.164634,86.6937987 308.057823,88.301538 309.844226,89.3971989 C311.63063,90.4928599 314.191104,91.0406822 317.525724,91.0406822 C322.503836,91.0406822 326.189727,90.2963584 328.583508,88.8076886 C330.977289,87.3190189 332.174162,85.3004129 332.174162,82.7518102 C332.174162,80.6319444 331.519157,79.1611607 330.209127,78.339415 C328.899098,77.5176693 326.433898,77.1068026 322.813453,77.1068026 L315.703601,77.1068026 C313.012086,77.1068026 310.916071,77.7498983 309.415492,79.036109 C307.914912,80.3223197 307.164634,82.1682425 307.164634,84.5739329 Z M310.380145,51.3827172 C310.380145,54.1218696 311.154241,56.1940669 312.702458,57.5993712 C314.250675,59.0046755 316.406236,59.7073171 319.169207,59.7073171 C324.957155,59.7073171 327.851086,56.8967507 327.851086,51.2755335 C327.851086,45.3923105 324.921428,42.4507431 319.062024,42.4507431 C316.275234,42.4507431 314.131581,43.2010215 312.631002,44.7016006 C311.130423,46.2021798 310.380145,48.4291964 310.380145,51.3827172 Z M352.003144,38.8422256 L352.003144,64.2447599 C352.003144,67.4364679 352.729604,69.8183039 354.182546,71.3903392 C355.635487,72.9623745 357.910141,73.7483803 361.006574,73.7483803 C365.103393,73.7483803 368.098552,72.6289174 369.99214,70.3899581 C371.885728,68.1509987 372.832508,64.4948805 372.832508,59.4214939 L372.832508,38.8422256 L378.763338,38.8422256 L378.763338,78 L373.868617,78 L373.011147,72.7479992 L372.689596,72.7479992 C371.474841,74.6773153 369.789693,76.1540536 367.634099,77.1782584 C365.478505,78.2024632 363.019259,78.7145579 360.256288,78.7145579 C355.492545,78.7145579 351.925745,77.5831859 349.555783,75.3204078 C347.185821,73.0576297 346.000857,69.4372391 346.000857,64.4591273 L346.000857,38.8422256 L352.003144,38.8422256 Z M397.270389,78 L391.339558,78 L391.339558,22.4073933 L397.270389,22.4073933 L397.270389,78 Z M433.92721,78 L432.74819,72.4264482 L432.462367,72.4264482 C430.509232,74.879776 428.562081,76.5411066 426.620856,77.4104897 C424.67963,78.2798729 422.256112,78.7145579 419.350229,78.7145579 C415.467778,78.7145579 412.424982,77.7141868 410.221751,75.7134146 C408.01852,73.7126424 406.916921,70.8663485 406.916921,67.1744474 C406.916921,59.2666335 413.240695,55.1222389 425.888434,54.7411395 L432.533822,54.5267721 L432.533822,52.0972752 C432.533822,49.0246607 431.872863,46.755962 430.550924,45.2911109 C429.228985,43.8262598 427.115106,43.0938453 424.209223,43.0938453 C420.946058,43.0938453 417.254213,44.0942164 413.133575,46.0949886 L411.311452,41.5575457 C413.240768,40.5095222 415.354647,39.6877888 417.653154,39.0923209 C419.95166,38.496853 422.256086,38.1991235 424.566502,38.1991235 C429.23497,38.1991235 432.694587,39.2352221 434.945455,41.3074505 C437.196324,43.3796788 438.321742,46.7023399 438.321742,51.2755335 L438.321742,78 L433.92721,78 Z M420.529249,73.8198361 C424.22115,73.8198361 427.121036,72.8075559 429.228992,70.7829649 C431.336948,68.758374 432.390911,65.9239893 432.390911,62.2797256 L432.390911,58.7426639 L426.46008,58.9927591 C421.743974,59.1594902 418.343903,59.8919047 416.259766,61.1900248 C414.175628,62.4881448 413.133575,64.5067508 413.133575,67.2459032 C413.133575,69.3895877 413.782625,71.0211453 415.080745,72.140625 C416.378865,73.2601047 418.195015,73.8198361 420.529249,73.8198361 Z M463.188357,73.8198361 C464.236381,73.8198361 465.248661,73.7424265 466.225229,73.5876048 C467.201796,73.4327831 467.975893,73.2720092 468.547542,73.1052782 L468.547542,77.642721 C467.904437,77.9523644 466.957657,78.2084117 465.707174,78.4108708 C464.456692,78.6133299 463.331274,78.7145579 462.330888,78.7145579 C454.756536,78.7145579 450.969417,74.7249827 450.969417,66.7457127 L450.969417,43.4511242 L445.360137,43.4511242 L445.360137,40.5928925 L450.969417,38.1276677 L453.47037,29.7673399 L456.900248,29.7673399 L456.900248,38.8422256 L468.261719,38.8422256 L468.261719,43.4511242 L456.900248,43.4511242 L456.900248,66.4956174 C456.900248,68.8536703 457.459979,70.6638656 458.579459,71.9262576 C459.698939,73.1886496 461.235223,73.8198361 463.188357,73.8198361 Z M492.913967,78.7145579 C487.126019,78.7145579 482.558849,76.9519993 479.212319,73.4268293 C475.865789,69.9016592 474.19255,65.0069864 474.19255,58.7426639 C474.19255,52.430704 475.746697,47.4169393 478.85504,43.7012195 C481.963383,39.9854997 486.13755,38.1276677 491.377668,38.1276677 C496.284323,38.1276677 500.166716,39.7413615 503.024962,42.9687976 C505.883208,46.1962337 507.312309,50.4537655 507.312309,55.7415206 L507.312309,59.4929497 L480.337748,59.4929497 C480.456841,64.089962 481.617986,67.5793517 483.821218,69.9612233 C486.024449,72.343095 489.12679,73.534013 493.128335,73.534013 C497.344247,73.534013 501.51246,72.6527337 505.633098,70.8901486 L505.633098,76.1778773 C503.537051,77.0829885 501.554173,77.7320388 499.684404,78.1250476 C497.814634,78.5180565 495.557845,78.7145579 492.913967,78.7145579 Z M491.306212,43.0938453 C488.162141,43.0938453 485.655259,44.1180347 483.78549,46.1664444 C481.91572,48.214854 480.814121,51.0492388 480.480659,54.6696837 L500.952744,54.6696837 C500.952744,50.9301452 500.119101,48.0659875 498.451791,46.0771246 C496.784481,44.0882618 494.402645,43.0938453 491.306212,43.0938453 Z" fill="#777777"></path>
                <g id="triangulate-logo" transform="translate(0.000000, 6.097561)">
                    <g id="logo" transform="translate(0.000000, 0.110865)">
                        <mask id="mask-2" fill="white">
                            <use xlink:href="#path-1"></use>
                        </mask>
                        <use id="Path-2" fill="#414E5F" xlink:href="#path-1"></use>
                        <rect id="Rectangle" fill="url(#linearGradient-3)" mask="url(#mask-2)" x="-39.3569845" y="-24.6119734" width="167.627494" height="167.627494" rx="14.6341463"></rect>
                    </g>
                </g>
            </g>
        </g>
    </g>
</svg>