<?xml version="1.0" encoding="UTF-8"?>
<svg width="50px" height="30px" viewBox="0 0 50 30" version="1.1" xmlns="http://www.w3.org/2000/svg" xmlns:xlink="http://www.w3.org/1999/xlink">
    <!-- Generator: Sketch 52.2 (67145) - http://www.bohemiancoding.com/sketch -->
    <title>icon-text-right</title>
    <desc>Created with Sketch.</desc>
    <g id="Page-1" stroke="none" stroke-width="1" fill="none" fill-rule="evenodd">
        <g id="Fixture-Copy-7" transform="translate(-110.000000, -269.000000)">
            <g id="Text-Right" transform="translate(93.000000, 260.000000)">
                <g id="icon-text-right" transform="translate(17.000000, 9.000000)">
                    <rect id="Rectangle" fill-opacity="0.01" fill="#FFFFFF" x="0" y="0" width="50" height="30"></rect>
                    <g id="Group-3" transform="translate(5.000000, 6.000000)" fill="#1C4B7C">
                        <rect id="Rectangle" x="21" y="2" width="20" height="2"></rect>
                        <rect id="Rectangle" x="21" y="6" width="20" height="2"></rect>
                        <rect id="Rectangle" x="21" y="10" width="20" height="2"></rect>
                        <rect id="Rectangle" x="21" y="14" width="10" height="2"></rect>
                        <path d="M18,16 L18,2 C18,0.9 17.1,0 16,0 L2,0 C0.9,0 0,0.9 0,2 L0,16 C0,17.1 0.9,18 2,18 L16,18 C17.1,18 18,17.1 18,16 Z M5.5,10.5 L8,13.51 L11.5,9 L16,15 L2,15 L5.5,10.5 Z" id="Shape" fill-rule="nonzero"></path>
                    </g>
                </g>
            </g>
        </g>
    </g>
</svg>