<?xml version="1.0" encoding="UTF-8"?>
<svg width="50px" height="30px" viewBox="0 0 50 30" version="1.1" xmlns="http://www.w3.org/2000/svg" xmlns:xlink="http://www.w3.org/1999/xlink">
    <!-- Generator: Sketch 52.2 (67145) - http://www.bohemiancoding.com/sketch -->
    <title>icon-testimonial</title>
    <desc>Created with Sketch.</desc>
    <g id="Page-1" stroke="none" stroke-width="1" fill="none" fill-rule="evenodd">
        <g id="Fixture-Copy-7" transform="translate(-110.000000, -381.000000)">
            <g id="Testimonial" transform="translate(93.000000, 370.000000)">
                <g id="icon-testimonial" transform="translate(17.000000, 11.000000)">
                    <rect id="Rectangle" fill-opacity="0.01" fill="#FFFFFF" x="0" y="0" width="50" height="30"></rect>
                    <g id="Testimonial" transform="translate(6.000000, 8.000000)">
                        <rect id="Rectangle" fill="#1C4B7C" x="18" y="2" width="20" height="2"></rect>
                        <rect id="Rectangle" fill="#1C4B7C" x="18" y="6" width="20" height="2"></rect>
                        <rect id="Rectangle" fill="#1C4B7C" x="18" y="10" width="10" height="2"></rect>
                        <path d="M15,13.3333333 L15,1.66666667 C15,0.75 14.25,0 13.3333333,0 L1.66666667,0 C0.75,0 0,0.75 0,1.66666667 L0,13.3333333 C0,14.25 0.75,15 1.66666667,15 L13.3333333,15 C14.25,15 15,14.25 15,13.3333333 Z" id="Shape" fill="#1C4B7C" fill-rule="nonzero"></path>
                        <path d="M8,8 C9.105,8 10,7.105 10,6 C10,4.895 9.105,4 8,4 C6.895,4 6,4.895 6,6 C6,7.105 6.895,8 8,8 Z M8,9 C6.665,9 4,9.67 4,11 L4,12 L12,12 L12,11 C12,9.67 9.335,9 8,9 Z" id="Shape" fill="#FFFFFF" fill-rule="nonzero"></path>
                    </g>
                </g>
            </g>
        </g>
    </g>
</svg>