<?xml version="1.0" encoding="UTF-8"?>
<svg width="50px" height="30px" viewBox="0 0 50 30" version="1.1" xmlns="http://www.w3.org/2000/svg" xmlns:xlink="http://www.w3.org/1999/xlink">
    <!-- Generator: Sketch 52.2 (67145) - http://www.bohemiancoding.com/sketch -->
    <title>icon-card</title>
    <desc>Created with Sketch.</desc>
    <g id="Page-1" stroke="none" stroke-width="1" fill="none" fill-rule="evenodd">
        <g id="Fixture-Copy-7" transform="translate(-313.000000, -269.000000)">
            <g id="Card" transform="translate(293.000000, 260.000000)">
                <g id="icon-card" transform="translate(20.000000, 9.000000)">
                    <rect id="Rectangle" fill-opacity="0.01" fill="#FFFFFF" x="0" y="0" width="50" height="30"></rect>
                    <g transform="translate(15.000000, 5.000000)" fill="#1C4B7C">
                        <rect id="Rectangle" x="0" y="14" width="20" height="2"></rect>
                        <rect id="Rectangle" x="0" y="18" width="20" height="2"></rect>
                        <path d="M20,10.6666667 L20,1.33333333 C20,0.6 19,0 17.7777778,0 L2.22222222,0 C1,0 0,0.6 0,1.33333333 L0,10.6666667 C0,11.4 1,12 2.22222222,12 L17.7777778,12 C19,12 20,11.4 20,10.6666667 Z M6.5,4.5 L9,7.51 L12.5,3 L17,9 L3,9 L6.5,4.5 Z" id="Shape" fill-rule="nonzero"></path>
                    </g>
                </g>
            </g>
        </g>
    </g>
</svg>