<?xml version="1.0" encoding="UTF-8"?>
<svg width="50px" height="30px" viewBox="0 0 50 30" version="1.1" xmlns="http://www.w3.org/2000/svg" xmlns:xlink="http://www.w3.org/1999/xlink">
    <!-- Generator: Sketch 52.2 (67145) - http://www.bohemiancoding.com/sketch -->
    <title>icon-h1</title>
    <desc>Created with Sketch.</desc>
    <g id="Page-1" stroke="none" stroke-width="1" fill="none" fill-rule="evenodd">
        <g id="Fixture-Copy-7" transform="translate(-110.000000, -482.000000)">
            <g id="h1" transform="translate(93.000000, 470.000000)">
                <g id="icon-h1" transform="translate(17.000000, 12.000000)">
                    <rect id="Rectangle" fill-opacity="0.01" fill="#FFFFFF" x="0" y="0" width="50" height="30"></rect>
                    <g id="headline" transform="translate(14.000000, 4.000000)">
                        <path d="M22,19.5555556 L22,2.44444444 C22,1.1 20.9,0 19.5555556,0 C16.6536941,0 14.4772979,0 13.0263672,0 C10.6748288,0 7.14752122,0 2.44444444,0 C1.1,0 0,1.1 0,2.44444444 L0,19.5555556 C0,20.9 1.1,22 2.44444444,22 L19.5555556,22 C20.9,22 22,20.9 22,19.5555556 Z" id="Shape" fill="#1C4B7C" fill-rule="nonzero"></path>
                        <text id="H4" font-family="Avenir-Black, Avenir" font-size="7" font-weight="700" fill="#FFFFFF">
                            <tspan x="6.2715" y="13">H4</tspan>
                        </text>
                    </g>
                </g>
            </g>
        </g>
    </g>
</svg>