<?xml version="1.0" encoding="UTF-8"?>
<svg width="50px" height="30px" viewBox="0 0 50 30" version="1.1" xmlns="http://www.w3.org/2000/svg" xmlns:xlink="http://www.w3.org/1999/xlink">
    <!-- Generator: Sketch 52.2 (67145) - http://www.bohemiancoding.com/sketch -->
    <title>icon-image-right</title>
    <desc>Created with Sketch.</desc>
    <g id="Page-1" stroke="none" stroke-width="1" fill="none" fill-rule="evenodd">
        <g id="Fixture-Copy-7" transform="translate(-210.000000, -589.000000)">
            <g id="Text-Left" transform="translate(193.000000, 580.000000)">
                <g id="icon-image-right" transform="translate(17.000000, 9.000000)">
                    <rect id="Rectangle" fill-opacity="0.01" fill="#FFFFFF" x="0" y="0" width="50" height="30"></rect>
                    <g id="Group-3" transform="translate(25.500000, 15.000000) scale(-1, 1) translate(-25.500000, -15.000000) translate(6.000000, 8.000000)" fill="#1C4B7C">
                        <rect id="Rectangle" x="13" y="0" width="26" height="2"></rect>
                        <rect id="Rectangle" x="13" y="4" width="26" height="2"></rect>
                        <rect id="Rectangle" x="13" y="8" width="26" height="2"></rect>
                        <rect id="Rectangle" x="0" y="12" width="39" height="2"></rect>
                        <path d="M11,8.88888889 L11,1.11111111 C11,0.5 10.45,0 9.77777778,0 L1.22222222,0 C0.55,0 0,0.5 0,1.11111111 L0,8.88888889 C0,9.5 0.55,10 1.22222222,10 L9.77777778,10 C10.45,10 11,9.5 11,8.88888889 Z M4,5 L5.42857143,7.00666667 L7.42857143,4 L10,8 L2,8 L4,5 Z" id="Shape" fill-rule="nonzero"></path>
                    </g>
                </g>
            </g>
        </g>
    </g>
</svg>